Music_IronWhale:
	channel_count 4
	channel 1, Music_IronWhale_Ch1
	channel 2, Music_IronWhale_Ch2
	channel 3, Music_IronWhale_Ch3
	channel 4, Music_IronWhale_Ch4

Music_IronWhale_Ch1:
	volume 7, 7
	note_type 6, 14, 7
	tempo 95
	octave 3
	duty_cycle 1
	note C_, 8
	octave 2
	note A#, 4
	octave 3
	note C_, 8
	octave 2
	note A#, 4
	octave 3
	note C_, 8
	octave 2
	note A#, 4
	octave 3
	note C_, 8
	octave 2
	note A#, 4
	octave 3
	note C_, 4
	octave 2
	note A#, 4
	octave 3
	note C_, 4
	octave 2
	note G#, 4
	note B_, 8
	note A_, 4
	note B_, 8
	note A_, 4
	note B_, 8
	note A_, 4
	note B_, 8
	note A_, 4
	note B_, 4
	note A_, 4
	note B_, 4
	note G_, 4
	note A#, 8
	note G#, 4
	note A#, 8
	note G#, 4
	note A#, 8
	note G#, 4
	note A#, 8
	note G#, 4
	note A#, 4
	note G#, 4
	note A#, 4
	note F#, 4
	note B_, 8
	note A_, 4
	note B_, 8
	note A_, 4
	note B_, 8
	note A_, 4
	note B_, 8
	note A_, 4
	note B_, 4
	note B_, 4
	rest 8
	octave 3
	note C_, 8
	octave 2
	note A#, 4
	octave 3
	note C_, 8
	octave 2
	note A#, 4
	octave 3
	note C_, 8
	octave 2
	note A#, 4
	octave 3
	note C_, 8
	octave 2
	note A#, 4
	octave 3
	note C_, 4
	octave 2
	note A#, 4
	octave 3
	note C_, 4
	octave 2
	note G#, 4
	note B_, 8
	note A_, 4
	note B_, 8
	note A_, 4
	note B_, 8
	note A_, 4
	note B_, 8
	note A_, 4
	note B_, 4
	note A_, 4
	note B_, 4
	note G_, 4
	note A#, 8
	note G#, 4
	note A#, 8
	note G#, 4
	note A#, 8
	note G#, 4
	note A#, 8
	note G#, 4
	note A#, 4
	note G#, 4
	note A#, 4
	note F#, 4
	note B_, 8
	note G_, 4
	octave 3
	note C_, 8
	octave 2
	note G#, 4
	octave 3
	note C#, 8
	octave 2
	note A_, 4
	octave 3
	note D_, 8
	octave 2
	note A#, 4
	note A#, 8
	rest 8
.mainloop:
	volume 7, 7
	note_type 6, 14, 7
	octave 3
	duty_cycle 1
	vibrato 0, 0, 0
	volume_envelope 14, 7
	note B_, 8
	rest 4
	note A_, 16
	note A_, 4
	note B_, 8
	rest 4
	note A_, 16
	note A_, 4
	note A_, 12
	note G_, 12
	note F#, 4
	rest 4
	note E_, 12
	note D_, 12
	octave 2
	note B_, 8
	octave 3
	note B_, 8
	rest 4
	note A_, 16
	note A_, 4
	note B_, 8
	rest 4
	note A_, 12
	note G_, 8
	note F#, 16
	note F#, 16
	note F#, 16
	note F#, 16
	note B_, 8
	rest 4
	note A_, 16
	note A_, 4
	note B_, 8
	rest 4
	note A_, 16
	note A_, 4
	note A_, 12
	note G_, 12
	note F#, 4
	rest 4
	note E_, 12
	note D_, 12
	octave 2
	note B_, 7
	octave 3
	note C_, 1
	note C#, 8
	note G_, 8
	note E_, 8
	octave 2
	note B_, 4
	note A#, 4
	rest 4
	note F#, 4
	octave 3
	note F#, 16
	rest 8
	octave 2
	volume_envelope 14, 5
	duty_cycle 0
	vibrato 0, 1, 2
	note B_, 4
	octave 3
	note C#, 4
	note D_, 4
	octave 2
	note B_, 4
	octave 3
	note C#, 4
	note D_, 4
	octave 2
	note B_, 4
	octave 3
	note D_, 4
	note C#, 4
	note D_, 4
	note E_, 4
	note C#, 4
	note D_, 4
	note E_, 4
	note C#, 4
	note E_, 4
	note D_, 4
	note E_, 4
	note F#, 4
	note D_, 4
	note E_, 4
	note F#, 4
	note D_, 4
	note F#, 3
	note A#, 1
	note B_, 4
	note F#, 4
	note D_, 4
	note E_, 4
	note F#, 16
	octave 2
	note B_, 4
	octave 3
	note C#, 4
	note D_, 4
	octave 2
	note B_, 4
	octave 3
	note C#, 4
	note D_, 4
	octave 2
	note B_, 4
	octave 3
	note D_, 4
	note C#, 4
	note D_, 4
	note E_, 4
	note C#, 4
	note D_, 4
	note E_, 4
	note C#, 4
	note E_, 4
	note F#, 8
	note D_, 8
	note B_, 8
	note F#, 8
	octave 4
	note D_, 16
	note D_, 16
	octave 3
	note D_, 4
	note E_, 4
	note F#, 4
	note D_, 4
	note E_, 4
	note F#, 4
	note D_, 4
	note F#, 4
	note E_, 4
	note F#, 4
	note G_, 12
	rest 12
	note F#, 4
	note G_, 4
	note A_, 4
	note F#, 4
	note G_, 4
	note A_, 4
	note F#, 4
	note A_, 4
	note G_, 4
	note A_, 4
	note B_, 12
	rest 12
	note G#, 4
	note A#, 4
	note B_, 4
	note G#, 4
	note A#, 4
	note B_, 4
	note G#, 4
	note B_, 3
	octave 4
	note C#, 1
	note D_, 8
	octave 3
	note B_, 8
	note G#, 8
	note B_, 8
	note A#, 4
	octave 2
	note F#, 4
	note F_, 4
	note F#, 4
	note F#, 4
	note F#, 4
	note F_, 4
	note F#, 4
	note F#, 4
	note F#, 4
	note F_, 4
	note F#, 12
	rest 8
	octave 3
	note B_, 8
	note F#, 4
	note B_, 8
	note F#, 4
	note B_, 8
	note F#, 4
	note B_, 8
	note F#, 4
	note B_, 4
	octave 4
	note C#, 4
	note D_, 4
	octave 3
	note B_, 4
	octave 4
	note C#, 8
	octave 3
	note A_, 4
	octave 4
	note C#, 8
	octave 3
	note A_, 4
	octave 4
	note C#, 8
	octave 3
	note A_, 4
	octave 4
	note C#, 8
	octave 3
	note A_, 4
	octave 4
	note C#, 4
	note D_, 4
	note E_, 4
	note A_, 4
	note A_, 16
	note A_, 16
	note A_, 16
	note A_, 8
	note G_, 4
	note F#, 4
	note E_, 4
	note D_, 4
	note D_, 4
	note C#, 8
	octave 3
	note B_, 8
	note A#, 8
	note G_, 8
	note F#, 8
	note F#, 4
	note G#, 4
	note A#, 4
	note B_, 8
	note F#, 4
	note B_, 8
	note F#, 4
	note B_, 8
	note F#, 4
	note B_, 8
	note F#, 4
	note B_, 4
	octave 4
	note C#, 4
	note D_, 4
	octave 3
	note B_, 4
	octave 4
	note C#, 8
	octave 3
	note A_, 4
	octave 4
	note C#, 8
	octave 3
	note A_, 4
	octave 4
	note C#, 8
	octave 3
	note A_, 4
	octave 4
	note C#, 8
	octave 3
	note A_, 4
	octave 4
	note C#, 4
	note D_, 4
	note E_, 4
	note A_, 4
	note A_, 16
	note A_, 16
	note A_, 16
	note A_, 8
	note G_, 4
	note F#, 4
	note E_, 4
	note D_, 4
	note D_, 4
	note C#, 8
	octave 3
	note B_, 8
	note A#, 8
	note G_, 8
	note F#, 8
	note F#, 4
	note G#, 4
	note A#, 4
	note B_, 4
	octave 4
	note C#, 4
	note D_, 4
	octave 3
	note E_, 8
	note F#, 4
	note G_, 4
	note A_, 8
	note B_, 4
	octave 4
	note C#, 4
	octave 3
	note D_, 8
	note E_, 4
	note F#, 8
	note G_, 4
	note F#, 4
	note E_, 4
	note D_, 4
	note C#, 4
	octave 2
	note B_, 4
	note A#, 4
	note B_, 4
	rest 16
	rest 16
	octave 3
	duty_cycle 1
	volume_envelope 14, 7
	note B_, 8
	rest 4
	note A_, 16
	note A_, 4
	note B_, 8
	rest 4
	note A_, 16
	note A_, 4
	note A_, 12
	note G_, 12
	note F#, 4
	rest 4
	note E_, 12
	note D_, 12
	octave 2
	note B_, 8
	octave 3
	note B_, 8
	rest 4
	note A_, 16
	note A_, 4
	note B_, 8
	rest 4
	note A_, 12
	note G_, 8
	note F#, 16
	note F#, 16
	note F#, 16
	note F#, 16
	note B_, 8
	rest 4
	note A_, 16
	note A_, 4
	note B_, 8
	rest 4
	note A_, 16
	note A_, 4
	note A_, 12
	note G_, 12
	note F#, 4
	rest 4
	note E_, 12
	note D_, 12
	octave 2
	note B_, 7
	octave 3
	note C_, 1
	note C#, 8
	note G_, 8
	note E_, 8
	octave 2
	note B_, 4
	note A#, 4
	rest 4
	note F#, 4
	octave 3
	note F#, 16
	note F#, 4
	rest 4
	octave 2
	volume_envelope 14, 5
	duty_cycle 0
	note B_, 4
	octave 3
	note C#, 4
	note D_, 4
	octave 2
	note B_, 4
	octave 3
	note C#, 4
	note D_, 4
	octave 2
	note B_, 4
	octave 3
	note D_, 4
	note C#, 4
	note D_, 4
	note E_, 4
	note C#, 4
	note D_, 4
	note E_, 4
	note C#, 4
	note E_, 4
	note D_, 4
	note E_, 4
	note F#, 4
	note D_, 4
	note E_, 4
	note F#, 4
	note D_, 4
	note F#, 3
	note A#, 1
	note B_, 4
	note F#, 4
	note D_, 4
	note E_, 4
	note F#, 16
	octave 2
	note B_, 4
	octave 3
	note C#, 4
	note D_, 4
	octave 2
	note B_, 4
	octave 3
	note C#, 4
	note D_, 4
	octave 2
	note B_, 4
	octave 3
	note D_, 4
	note C#, 4
	note D_, 4
	note E_, 4
	note C#, 4
	note D_, 4
	note E_, 4
	note C#, 4
	note E_, 4
	note F#, 8
	note D_, 8
	note B_, 8
	note F#, 8
	octave 4
	note D_, 16
	note D_, 16
	octave 3
	note D_, 4
	note E_, 4
	note F#, 4
	note D_, 4
	note E_, 4
	note F#, 4
	note D_, 4
	note F#, 4
	note E_, 4
	note F#, 4
	note G_, 12
	rest 12
	note F#, 4
	note G_, 4
	note A_, 4
	note F#, 4
	note G_, 4
	note A_, 4
	note F#, 4
	note A_, 4
	note G_, 4
	note A_, 4
	note B_, 12
	rest 12
	note G#, 4
	note A#, 4
	note B_, 4
	note G#, 4
	note A#, 4
	note B_, 4
	note G#, 4
	note B_, 3
	octave 4
	note C#, 1
	note D_, 8
	octave 3
	note B_, 8
	note G#, 8
	note B_, 8
	note A#, 4
	octave 2
	note F#, 4
	note F_, 4
	note F#, 4
	note F#, 4
	note F#, 4
	note F_, 4
	note F#, 4
	note F#, 4
	note F#, 4
	note F_, 4
	note F#, 8
	rest 12
	octave 3
	note B_, 8
	note F#, 4
	note B_, 8
	note F#, 4
	note B_, 8
	note F#, 4
	note B_, 8
	note F#, 4
	note B_, 4
	octave 4
	note C#, 4
	note D_, 4
	octave 3
	note B_, 4
	octave 4
	note C#, 8
	octave 3
	note A_, 4
	octave 4
	note C#, 8
	octave 3
	note A_, 4
	octave 4
	note C#, 8
	octave 3
	note A_, 4
	octave 4
	note C#, 8
	octave 3
	note A_, 4
	octave 4
	note C#, 4
	note D_, 4
	note E_, 4
	note A_, 4
	note A_, 16
	note A_, 16
	note A_, 16
	note A_, 8
	note G_, 4
	note F#, 4
	note E_, 4
	note D_, 4
	note D_, 4
	note C#, 8
	octave 3
	note B_, 8
	note A#, 8
	note G_, 8
	note F#, 8
	note F#, 4
	note G#, 4
	note A#, 4
	note B_, 8
	note F#, 4
	note B_, 8
	note F#, 4
	note B_, 8
	note F#, 4
	note B_, 8
	note F#, 4
	note B_, 4
	octave 4
	note C#, 4
	note D_, 4
	octave 3
	note B_, 4
	octave 4
	note C#, 8
	octave 3
	note A_, 4
	octave 4
	note C#, 8
	octave 3
	note A_, 4
	octave 4
	note C#, 8
	octave 3
	note A_, 4
	octave 4
	note C#, 8
	octave 3
	note A_, 4
	octave 4
	note C#, 4
	note D_, 4
	note E_, 4
	note A_, 4
	note A_, 16
	note A_, 16
	note A_, 16
	note A_, 8
	note G_, 4
	note F#, 4
	note E_, 4
	note D_, 4
	note D_, 4
	note C#, 8
	octave 3
	note B_, 8
	note A#, 8
	note G_, 8
	note F#, 8
	note F#, 4
	note G#, 4
	note A#, 4
	note B_, 4
	octave 4
	note C#, 4
	note D_, 4
	octave 3
	note E_, 8
	note F#, 4
	note G_, 4
	note A_, 8
	note B_, 4
	octave 4
	note C#, 4
	octave 3
	note D_, 8
	note E_, 4
	note F#, 8
	note G_, 4
	note F#, 4
	note E_, 4
	note D_, 4
	note C#, 4
	octave 2
	note B_, 4
	note A#, 4
	note B_, 4
	rest 16
	rest 16
	octave 3
	duty_cycle 1
	volume_envelope 14, 7
	note B_, 8
	rest 4
	note A_, 16
	note A_, 4
	note B_, 8
	rest 4
	note A_, 16
	note A_, 4
	note A_, 12
	note G_, 12
	note F#, 4
	rest 4
	note E_, 12
	note D_, 12
	octave 2
	note B_, 8
	octave 3
	note B_, 8
	rest 4
	note A_, 16
	note A_, 4
	note B_, 8
	rest 4
	note A_, 12
	note G_, 8
	note F#, 16
	note F#, 16
	note F#, 16
	note F#, 16
	note B_, 8
	rest 4
	note A_, 16
	note A_, 4
	note B_, 8
	rest 4
	note A_, 16
	note A_, 4
	note A_, 12
	note G_, 12
	note F#, 4
	rest 4
	note E_, 12
	note D_, 12
	octave 2
	note B_, 7
	octave 3
	note C_, 1
	note C#, 8
	note G_, 8
	note E_, 8
	octave 2
	note B_, 4
	note A#, 4
	rest 4
	note F#, 4
	octave 3
	note F#, 16
	note F#, 4
	rest 4
	octave 2
	duty_cycle 0
	volume_envelope 14, 5
	note B_, 4
	octave 3
	note C#, 4
	note D_, 4
	octave 2
	note B_, 4
	octave 3
	note C#, 4
	note D_, 4
	octave 2
	note B_, 4
	octave 3
	note D_, 4
	note C#, 4
	note D_, 4
	note E_, 4
	note C#, 4
	note D_, 4
	note E_, 4
	note C#, 4
	note E_, 4
	note D_, 4
	note E_, 4
	note F#, 4
	note D_, 4
	note E_, 4
	note F#, 4
	note D_, 4
	note F#, 3
	note A#, 1
	note B_, 4
	note F#, 4
	note D_, 4
	note E_, 4
	note F#, 16
	octave 2
	note B_, 4
	octave 3
	note C#, 4
	note D_, 4
	octave 2
	note B_, 4
	octave 3
	note C#, 4
	note D_, 4
	octave 2
	note B_, 4
	octave 3
	note D_, 4
	note C#, 4
	note D_, 4
	note E_, 4
	note C#, 4
	note D_, 4
	note E_, 4
	note C#, 4
	note E_, 4
	note F#, 8
	note D_, 8
	note B_, 8
	note F#, 8
	octave 4
	note D_, 16
	note D_, 16
	octave 3
	note D_, 4
	note E_, 4
	note F#, 4
	note D_, 4
	note E_, 4
	note F#, 4
	note D_, 4
	note F#, 4
	note E_, 4
	note F#, 4
	note G_, 10
	rest 14
	note F#, 4
	note G_, 4
	note A_, 4
	note F#, 4
	note G_, 4
	note A_, 4
	note F#, 4
	note A_, 4
	note G_, 4
	note A_, 4
	note B_, 10
	rest 14
	note G#, 4
	note A#, 4
	note B_, 4
	note G#, 4
	note A#, 4
	note B_, 4
	note G#, 4
	note B_, 3
	octave 4
	note C#, 1
	note D_, 8
	octave 3
	note B_, 8
	note G#, 8
	note B_, 8
	note A#, 4
	octave 2
	note F#, 4
	note F_, 4
	note F#, 4
	note F#, 4
	note F#, 4
	note F_, 4
	note F#, 4
	note F#, 4
	note F#, 4
	note F_, 4
	note F#, 8
	rest 12
	octave 3
	note B_, 8
	note F#, 4
	note B_, 8
	note F#, 4
	note B_, 8
	note F#, 4
	note B_, 8
	note F#, 4
	note B_, 4
	octave 4
	note C#, 4
	note D_, 4
	octave 3
	note B_, 4
	octave 4
	note C#, 8
	octave 3
	note A_, 4
	octave 4
	note C#, 8
	octave 3
	note A_, 4
	octave 4
	note C#, 8
	octave 3
	note A_, 4
	octave 4
	note C#, 8
	octave 3
	note A_, 4
	octave 4
	note C#, 4
	note D_, 4
	note E_, 4
	note A_, 4
	note A_, 16
	note A_, 16
	note A_, 16
	note A_, 8
	note G_, 4
	note F#, 4
	note E_, 4
	note D_, 4
	note D_, 4
	note C#, 8
	octave 3
	note B_, 8
	note A#, 8
	note G_, 8
	note F#, 8
	note F#, 4
	note G#, 4
	note A#, 4
	note B_, 8
	note F#, 4
	note B_, 8
	note F#, 4
	note B_, 8
	note F#, 4
	note B_, 8
	note F#, 4
	note B_, 4
	octave 4
	note C#, 4
	note D_, 4
	octave 3
	note B_, 4
	octave 4
	note C#, 8
	octave 3
	note A_, 4
	octave 4
	note C#, 8
	octave 3
	note A_, 4
	octave 4
	note C#, 8
	octave 3
	note A_, 4
	octave 4
	note C#, 8
	octave 3
	note A_, 4
	octave 4
	note C#, 4
	note D_, 4
	note E_, 4
	note A_, 4
	note A_, 16
	note A_, 16
	note A_, 16
	note A_, 8
	note G_, 4
	note F#, 4
	note E_, 4
	note D_, 4
	note D_, 4
	note C#, 8
	octave 3
	note B_, 8
	note A#, 8
	note G_, 8
	note F#, 8
	note F#, 4
	note G#, 4
	note A#, 4
	note B_, 4
	octave 4
	note C#, 4
	note D_, 4
	octave 3
	note E_, 8
	note F#, 4
	note G_, 4
	note A_, 8
	note B_, 4
	octave 4
	note C#, 4
	octave 3
	note D_, 8
	note E_, 4
	note F#, 8
	note G_, 4
	note F#, 4
	note E_, 4
	note D_, 4
	note C#, 4
	octave 2
	note B_, 4
	note A#, 4
	note B_, 4
	rest 16
	rest 16
	sound_jump .mainloop

Music_IronWhale_Ch2:
	note_type 6, 10, -1
	octave 2
	duty_cycle 2
	note G#, 8
	rest 4
	note G#, 8
	rest 4
	note G#, 8
	rest 4
	note G#, 8
	rest 4
	note G#, 4
	rest 4
	note G#, 4
	rest 4
	note G_, 8
	rest 4
	note G_, 8
	rest 4
	note G_, 8
	rest 4
	note G_, 8
	rest 4
	note G_, 4
	rest 4
	note G_, 4
	rest 4
	note F#, 8
	rest 4
	note F#, 8
	rest 4
	note F#, 8
	rest 4
	note F#, 8
	rest 4
	note F#, 4
	rest 4
	note F#, 4
	rest 4
	note G_, 8
	rest 4
	note G_, 8
	rest 4
	note G_, 8
	rest 4
	note G_, 8
	rest 4
	note G_, 4
	rest 12
	note G#, 8
	rest 4
	note G#, 8
	rest 4
	note G#, 8
	rest 4
	note G#, 8
	rest 4
	note G#, 4
	rest 4
	note G#, 4
	rest 4
	note G_, 8
	rest 4
	note G_, 8
	rest 4
	note G_, 8
	rest 4
	note G_, 8
	rest 4
	note G_, 4
	rest 4
	note G_, 4
	rest 4
	note F#, 8
	rest 4
	note F#, 8
	rest 4
	note F#, 8
	rest 4
	note F#, 8
	rest 4
	note F#, 4
	rest 4
	note F#, 4
	rest 4
	note G_, 8
	note D#, 4
	note G#, 8
	note E_, 4
	note A_, 8
	note F_, 4
	note A#, 8
	rest 16
	rest 4
.mainloop:
	note_type 6, 10, -1
	duty_cycle 2
	octave 3
	note C_, 4
	rest 4
	note C_, 2
	rest 2
	note C_, 4
	rest 4
	note F_, 4
	rest 8
	note F_, 4
	rest 4
	note C_, 2
	rest 2
	note F_, 4
	rest 4
	note F_, 4
	rest 8
	note D_, 4
	rest 4
	octave 2
	note B_, 2
	rest 2
	note B_, 4
	rest 4
	octave 3
	note D_, 4
	octave 2
	note B_, 2
	rest 6
	note B_, 4
	rest 4
	note B_, 2
	rest 2
	note B_, 4
	rest 4
	note F#, 2
	rest 2
	note D_, 4
	rest 4
	octave 3
	note F_, 4
	rest 4
	note F_, 2
	rest 2
	note C_, 4
	rest 4
	note C_, 4
	rest 8
	note F_, 4
	rest 4
	note C_, 2
	rest 2
	note F_, 4
	rest 4
	note F_, 4
	rest 8
	octave 2
	note B_, 4
	rest 16
	rest 16
	rest 16
	rest 12
	octave 3
	note F_, 4
	rest 4
	note F_, 2
	rest 2
	note C_, 4
	rest 4
	note C_, 4
	rest 8
	note C_, 4
	rest 4
	note C_, 2
	rest 2
	note C_, 4
	rest 4
	note F_, 4
	rest 8
	note D_, 4
	rest 4
	note D_, 2
	rest 2
	note D_, 4
	rest 4
	octave 2
	note B_, 4
	octave 3
	note D_, 2
	rest 6
	octave 2
	note B_, 4
	rest 4
	note B_, 2
	rest 2
	note F#, 4
	rest 4
	note B_, 2
	rest 2
	note F#, 4
	rest 4
	note C#, 8
	note G_, 8
	note E_, 8
	octave 1
	note B_, 4
	note A#, 4
	rest 4
	note F#, 4
	octave 2
	note A#, 16
	note A#, 4
	rest 4
	octave 3
	note F_, 4
	rest 4
	octave 2
	note G#, 2
	rest 2
	note G#, 4
	rest 4
	note G#, 2
	rest 2
	note G#, 4
	rest 4
	octave 3
	note E_, 4
	rest 4
	note E_, 2
	rest 2
	octave 2
	note A#, 4
	rest 4
	note A#, 2
	rest 2
	note A#, 4
	rest 4
	note B_, 4
	rest 4
	note B_, 2
	rest 2
	note B_, 4
	rest 4
	note B_, 2
	rest 2
	note B_, 4
	rest 4
	note F#, 4
	rest 4
	note F#, 2
	rest 2
	note F#, 4
	rest 4
	note B_, 2
	rest 2
	note F#, 4
	rest 4
	octave 3
	note F_, 4
	rest 4
	octave 2
	note G#, 2
	rest 2
	note G#, 4
	rest 4
	octave 3
	note F_, 2
	rest 2
	octave 2
	note G#, 4
	rest 4
	note F#, 4
	rest 4
	octave 3
	note E_, 2
	rest 2
	note E_, 4
	rest 4
	note E_, 2
	rest 2
	octave 2
	note F#, 4
	rest 4
	octave 3
	note D_, 4
	rest 4
	note D_, 2
	rest 2
	note F#, 4
	rest 4
	note F#, 2
	rest 2
	note D_, 4
	rest 4
	octave 2
	note B_, 4
	rest 4
	octave 3
	note D_, 2
	rest 2
	note F#, 4
	rest 4
	octave 2
	note B_, 2
	rest 2
	octave 3
	note D_, 4
	rest 4
	note G_, 4
	rest 4
	note G_, 2
	rest 2
	note G_, 4
	rest 4
	note G_, 2
	rest 2
	note G_, 4
	rest 4
	note C#, 4
	rest 4
	note C#, 2
	rest 2
	note C#, 4
	rest 4
	note C#, 2
	rest 2
	note C#, 4
	rest 4
	note D_, 4
	rest 4
	note D_, 2
	rest 2
	note D_, 4
	rest 4
	note D_, 2
	rest 2
	note D_, 4
	rest 4
	note E_, 4
	rest 4
	note E_, 2
	rest 2
	note E_, 4
	rest 4
	note E_, 2
	rest 2
	note E_, 4
	rest 4
	note C#, 4
	rest 4
	note C#, 2
	rest 2
	note C#, 4
	rest 4
	note C#, 2
	rest 2
	note C#, 4
	rest 4
	note F_, 4
	rest 4
	note F_, 2
	rest 2
	note F_, 4
	rest 4
	note F_, 2
	rest 2
	note F_, 4
	rest 4
	octave 1
	note A#, 4
	note F#, 4
	note F_, 4
	note F#, 4
	note F#, 4
	note F#, 4
	note F_, 4
	note F#, 4
	note F#, 4
	note F#, 4
	note F_, 4
	note F#, 8
	rest 12
	octave 3
	note D_, 8
	octave 2
	note B_, 4
	octave 3
	note D_, 8
	octave 2
	note B_, 4
	octave 3
	note D_, 8
	octave 2
	note B_, 4
	octave 3
	note D_, 8
	octave 2
	note B_, 4
	octave 3
	note D_, 4
	note E_, 4
	note F#, 4
	note D_, 4
	note E_, 8
	note C#, 4
	note E_, 8
	note C#, 4
	note E_, 8
	note C#, 4
	note E_, 8
	note C#, 4
	note E_, 4
	note F#, 4
	note G_, 4
	note E_, 4
	note F#, 8
	note D_, 4
	note F#, 8
	note D_, 4
	note F#, 8
	note D_, 4
	note F#, 8
	note D_, 4
	note F#, 4
	note G_, 4
	note A_, 4
	octave 4
	note D_, 4
	note C#, 4
	octave 3
	note B_, 4
	note B_, 4
	note A#, 8
	note G_, 8
	note F#, 8
	note E_, 8
	note D_, 8
	note C#, 4
	note E_, 4
	note F#, 4
	note D_, 8
	octave 2
	note B_, 4
	octave 3
	note D_, 8
	octave 2
	note B_, 4
	octave 3
	note D_, 8
	octave 2
	note B_, 4
	octave 3
	note D_, 8
	octave 2
	note B_, 4
	octave 3
	note D_, 4
	note E_, 4
	note F#, 4
	note D_, 4
	note E_, 8
	note C#, 4
	note E_, 8
	note C#, 4
	note E_, 8
	note C#, 4
	note E_, 8
	note C#, 4
	note E_, 4
	note F#, 4
	note G_, 4
	note E_, 4
	note F#, 8
	note D_, 4
	note F#, 8
	note D_, 4
	note F#, 8
	note D_, 4
	note F#, 8
	note D_, 4
	note F#, 4
	note G_, 4
	note A_, 4
	octave 4
	note D_, 4
	note C#, 4
	octave 3
	note B_, 4
	note B_, 4
	note A#, 8
	note G_, 8
	note F#, 8
	note E_, 8
	note D_, 8
	note C#, 4
	note E_, 4
	note F#, 4
	note G_, 4
	note A_, 4
	note G_, 4
	note C#, 8
	note D_, 4
	note E_, 4
	note F#, 8
	note E_, 4
	note D_, 4
	octave 2
	note B_, 8
	octave 3
	note C#, 4
	note E_, 4
	octave 2
	note B_, 4
	octave 3
	note E_, 4
	note C#, 4
	octave 2
	note G_, 4
	note F#, 4
	octave 3
	note F#, 4
	octave 4
	note F#, 4
	octave 3
	note F#, 4
	octave 2
	note B_, 4
	rest 16
	rest 16
	octave 3
	note F_, 4
	rest 4
	note F_, 2
	rest 2
	note F_, 4
	rest 4
	note C_, 4
	rest 8
	note C_, 4
	rest 4
	note C_, 2
	rest 2
	note F_, 4
	rest 4
	note F_, 4
	rest 8
	octave 2
	note B_, 4
	rest 4
	note B_, 2
	rest 2
	note B_, 4
	rest 4
	octave 3
	note D_, 4
	note D_, 2
	rest 6
	octave 2
	note B_, 4
	rest 4
	note B_, 2
	rest 2
	note F#, 4
	rest 4
	note B_, 2
	rest 2
	note F#, 4
	rest 4
	octave 3
	note C_, 4
	rest 4
	note C_, 2
	rest 2
	note F_, 4
	rest 4
	note F_, 4
	rest 8
	note C_, 4
	rest 4
	note F_, 2
	rest 2
	note C_, 4
	rest 4
	note C_, 4
	rest 8
	octave 2
	note B_, 4
	rest 16
	rest 16
	rest 16
	rest 12
	octave 3
	note F_, 4
	rest 4
	note F_, 2
	rest 2
	note C_, 4
	rest 4
	note C_, 4
	rest 8
	note C_, 4
	rest 4
	note C_, 2
	rest 2
	note C_, 4
	rest 4
	note F_, 4
	rest 8
	note D_, 4
	rest 4
	note D_, 2
	rest 2
	note D_, 4
	rest 4
	octave 2
	note B_, 4
	octave 3
	note D_, 2
	rest 6
	octave 2
	note B_, 4
	rest 4
	note B_, 2
	rest 2
	note F#, 4
	rest 4
	note B_, 2
	rest 2
	note F#, 4
	rest 4
	note C#, 8
	note G_, 8
	note E_, 8
	octave 1
	note B_, 4
	note A#, 4
	rest 4
	note F#, 4
	octave 3
	note C#, 16
	note C#, 4
	rest 4
	note F_, 4
	rest 4
	octave 2
	note G#, 2
	rest 2
	note G#, 4
	rest 4
	octave 3
	note F_, 2
	rest 2
	octave 2
	note G#, 4
	rest 4
	note A#, 4
	rest 4
	note A#, 2
	rest 2
	octave 3
	note E_, 4
	rest 4
	note E_, 2
	rest 2
	note E_, 4
	rest 4
	octave 2
	note B_, 4
	rest 4
	note B_, 2
	rest 2
	note F#, 4
	rest 4
	note B_, 2
	rest 2
	note B_, 4
	rest 4
	octave 3
	note D_, 4
	rest 4
	note D_, 2
	rest 2
	octave 2
	note B_, 4
	rest 4
	note F#, 2
	rest 2
	note B_, 4
	rest 4
	octave 3
	note F_, 4
	rest 4
	note F_, 2
	rest 2
	note F_, 4
	rest 4
	octave 2
	note G#, 2
	rest 2
	octave 3
	note F_, 4
	rest 4
	note E_, 4
	rest 4
	octave 2
	note F#, 2
	rest 2
	note F#, 4
	rest 4
	note F#, 2
	rest 2
	octave 3
	note E_, 4
	rest 4
	octave 2
	note B_, 4
	rest 4
	octave 3
	note D_, 2
	rest 2
	note F#, 4
	rest 4
	octave 2
	note B_, 2
	rest 2
	note B_, 4
	rest 4
	octave 3
	note D_, 4
	rest 4
	octave 2
	note B_, 2
	rest 2
	note B_, 4
	rest 4
	octave 3
	note F#, 2
	rest 2
	octave 2
	note B_, 4
	rest 4
	octave 3
	note G_, 4
	rest 4
	octave 2
	note A#, 2
	rest 2
	note A#, 4
	rest 4
	octave 3
	note G_, 2
	rest 2
	octave 2
	note A#, 4
	rest 4
	octave 3
	note C#, 4
	rest 4
	note C#, 2
	rest 2
	note C#, 4
	rest 4
	note C#, 2
	rest 2
	octave 2
	note A_, 4
	rest 4
	note A_, 4
	rest 4
	note A_, 2
	rest 2
	octave 3
	note D_, 4
	rest 4
	note D_, 2
	rest 2
	note D_, 4
	rest 4
	note E_, 4
	rest 4
	note E_, 2
	rest 2
	note E_, 4
	rest 4
	note E_, 2
	rest 2
	note E_, 4
	rest 4
	note C#, 4
	rest 4
	note C#, 2
	rest 2
	octave 2
	note B_, 4
	rest 4
	octave 3
	note C#, 2
	rest 2
	note C#, 4
	rest 4
	note C#, 4
	rest 4
	note F_, 2
	rest 2
	note C#, 4
	rest 4
	note C#, 2
	rest 2
	note C#, 4
	rest 4
	octave 1
	note A#, 4
	note F#, 4
	note F_, 4
	note F#, 4
	note F#, 4
	note F#, 4
	note F_, 4
	note F#, 4
	note F#, 4
	note F#, 4
	note F_, 4
	note F#, 8
	rest 12
	octave 3
	note D_, 8
	octave 2
	note B_, 4
	octave 3
	note D_, 8
	octave 2
	note B_, 4
	octave 3
	note D_, 8
	octave 2
	note B_, 4
	octave 3
	note D_, 8
	octave 2
	note B_, 4
	octave 3
	note D_, 4
	note E_, 4
	note F#, 4
	note D_, 4
	note E_, 8
	note C#, 4
	note E_, 8
	note C#, 4
	note E_, 8
	note C#, 4
	note E_, 8
	note C#, 4
	note E_, 4
	note F#, 4
	note G_, 4
	note E_, 4
	note F#, 8
	note D_, 4
	note F#, 8
	note D_, 4
	note F#, 8
	note D_, 4
	note F#, 8
	note D_, 4
	note F#, 4
	note G_, 4
	note A_, 4
	octave 4
	note D_, 4
	note C#, 4
	octave 3
	note B_, 4
	note B_, 4
	note A#, 8
	note G_, 8
	note F#, 8
	note E_, 8
	note D_, 8
	note C#, 4
	note E_, 4
	note F#, 4
	note D_, 8
	octave 2
	note B_, 4
	octave 3
	note D_, 8
	octave 2
	note B_, 4
	octave 3
	note D_, 8
	octave 2
	note B_, 4
	octave 3
	note D_, 8
	octave 2
	note B_, 4
	octave 3
	note D_, 4
	note E_, 4
	note F#, 4
	note D_, 4
	note E_, 8
	note C#, 4
	note E_, 8
	note C#, 4
	note E_, 8
	note C#, 4
	note E_, 8
	note C#, 4
	note E_, 4
	note F#, 4
	note G_, 4
	note E_, 4
	note F#, 8
	note D_, 4
	note F#, 8
	note D_, 4
	note F#, 8
	note D_, 4
	note F#, 8
	note D_, 4
	note F#, 4
	note G_, 4
	note A_, 4
	octave 4
	note D_, 4
	note C#, 4
	octave 3
	note B_, 4
	note B_, 4
	note A#, 8
	note G_, 8
	note F#, 8
	note E_, 8
	note D_, 8
	note C#, 4
	note E_, 4
	note F#, 4
	note G_, 4
	note A_, 4
	note G_, 4
	note C#, 8
	note D_, 4
	note E_, 4
	note F#, 8
	note E_, 4
	note D_, 4
	octave 2
	note B_, 8
	octave 3
	note C#, 4
	note E_, 4
	octave 2
	note B_, 4
	octave 3
	note E_, 4
	note C#, 4
	octave 2
	note G_, 4
	note F#, 4
	octave 3
	note F#, 4
	octave 4
	note F#, 4
	octave 3
	note F#, 4
	octave 2
	note B_, 4
	rest 16
	rest 16
	octave 3
	note C_, 4
	rest 4
	note F_, 2
	rest 2
	note C_, 4
	rest 4
	note C_, 4
	rest 8
	note F_, 4
	rest 4
	note C_, 2
	rest 2
	note F_, 4
	rest 4
	note F_, 4
	rest 8
	note D_, 4
	rest 4
	note D_, 2
	rest 2
	note D_, 4
	rest 4
	note D_, 4
	octave 2
	note B_, 2
	rest 6
	note B_, 4
	rest 4
	note B_, 2
	rest 2
	note B_, 4
	rest 4
	note F#, 2
	rest 2
	note D_, 4
	rest 4
	octave 3
	note F_, 4
	rest 4
	note C_, 2
	rest 2
	note F_, 4
	rest 4
	note F_, 4
	rest 8
	note F_, 4
	rest 4
	note F_, 2
	rest 2
	note F_, 4
	rest 4
	note C_, 4
	rest 8
	octave 2
	note B_, 4
	rest 16
	rest 16
	rest 16
	rest 12
	octave 3
	note C_, 4
	rest 4
	note F_, 2
	rest 2
	note C_, 4
	rest 4
	note C_, 4
	rest 8
	note C_, 4
	rest 4
	note C_, 2
	rest 2
	note F_, 4
	rest 4
	note C_, 4
	rest 8
	octave 2
	note B_, 4
	rest 4
	note B_, 2
	rest 2
	note B_, 4
	rest 4
	octave 3
	note D_, 4
	note D_, 2
	rest 6
	octave 2
	note B_, 4
	rest 4
	note B_, 2
	rest 2
	note F#, 4
	rest 4
	note B_, 2
	rest 2
	note D_, 4
	rest 4
	note C#, 8
	note G_, 8
	note E_, 8
	octave 1
	note B_, 4
	note A#, 4
	rest 4
	note F#, 4
	octave 3
	note C#, 16
	note C#, 4
	rest 4
	note F_, 4
	rest 4
	octave 2
	note G#, 2
	rest 2
	note G#, 4
	rest 4
	octave 3
	note F_, 2
	rest 2
	octave 2
	note G#, 4
	rest 4
	note A#, 4
	rest 4
	note A#, 2
	rest 2
	octave 3
	note E_, 4
	rest 4
	octave 2
	note A#, 2
	rest 2
	note A#, 4
	rest 4
	note F#, 4
	rest 4
	note F#, 2
	rest 2
	note F#, 4
	rest 4
	note F#, 2
	rest 2
	note F#, 4
	rest 4
	note F#, 4
	rest 4
	note F#, 2
	rest 2
	note B_, 4
	rest 4
	note F#, 2
	rest 2
	note B_, 4
	rest 4
	octave 3
	note F_, 4
	rest 4
	octave 2
	note G#, 2
	rest 2
	note G#, 4
	rest 4
	note G#, 2
	rest 2
	octave 3
	note F_, 4
	rest 4
	octave 2
	note F#, 4
	rest 4
	note F#, 2
	rest 2
	octave 3
	note E_, 4
	rest 4
	octave 2
	note F#, 2
	rest 2
	note F#, 4
	rest 4
	note B_, 4
	rest 4
	octave 3
	note D_, 2
	rest 2
	octave 2
	note B_, 4
	rest 4
	note B_, 2
	rest 2
	octave 3
	note D_, 4
	rest 4
	octave 2
	note B_, 4
	rest 4
	octave 3
	note D_, 2
	rest 2
	note F#, 4
	rest 4
	note F#, 2
	rest 2
	octave 2
	note B_, 4
	rest 4
	octave 3
	note G_, 4
	rest 4
	note G_, 2
	rest 2
	note G_, 4
	rest 4
	octave 2
	note A#, 2
	rest 2
	octave 3
	note G_, 4
	rest 4
	note C#, 4
	rest 4
	octave 2
	note A_, 2
	rest 2
	octave 3
	note C#, 4
	rest 4
	octave 2
	note A_, 2
	rest 2
	note A_, 4
	rest 4
	note A_, 4
	rest 4
	octave 3
	note D_, 2
	rest 2
	note D_, 4
	rest 4
	note D_, 2
	rest 2
	note D_, 4
	rest 4
	note E_, 4
	rest 4
	note E_, 2
	rest 2
	note E_, 4
	rest 4
	note E_, 2
	rest 2
	note E_, 4
	rest 4
	octave 2
	note B_, 4
	rest 4
	octave 3
	note C#, 2
	rest 2
	note C#, 4
	rest 4
	note C#, 2
	rest 2
	octave 2
	note B_, 4
	rest 4
	octave 3
	note C#, 4
	rest 4
	note F_, 2
	rest 2
	note F_, 4
	rest 4
	note F_, 2
	rest 2
	note F_, 4
	rest 4
	octave 1
	note A#, 4
	note F#, 4
	note F_, 4
	note F#, 4
	note F#, 4
	note F#, 4
	note F_, 4
	note F#, 4
	note F#, 4
	note F#, 4
	note F_, 4
	note F#, 8
	rest 12
	octave 3
	note D_, 8
	octave 2
	note B_, 4
	octave 3
	note D_, 8
	octave 2
	note B_, 4
	octave 3
	note D_, 8
	octave 2
	note B_, 4
	octave 3
	note D_, 8
	octave 2
	note B_, 4
	octave 3
	note D_, 4
	note E_, 4
	note F#, 4
	note D_, 4
	note E_, 8
	note C#, 4
	note E_, 8
	note C#, 4
	note E_, 8
	note C#, 4
	note E_, 8
	note C#, 4
	note E_, 4
	note F#, 4
	note G_, 4
	note E_, 4
	note F#, 8
	note D_, 4
	note F#, 8
	note D_, 4
	note F#, 8
	note D_, 4
	note F#, 8
	note D_, 4
	note F#, 4
	note G_, 4
	note A_, 4
	octave 4
	note D_, 4
	note C#, 4
	octave 3
	note B_, 4
	note B_, 4
	note A#, 8
	note G_, 8
	note F#, 8
	note E_, 8
	note D_, 8
	note C#, 4
	note E_, 4
	note F#, 4
	note D_, 8
	octave 2
	note B_, 4
	octave 3
	note D_, 8
	octave 2
	note B_, 4
	octave 3
	note D_, 8
	octave 2
	note B_, 4
	octave 3
	note D_, 8
	octave 2
	note B_, 4
	octave 3
	note D_, 4
	note E_, 4
	note F#, 4
	note D_, 4
	note E_, 8
	note C#, 4
	note E_, 8
	note C#, 4
	note E_, 8
	note C#, 4
	note E_, 8
	note C#, 4
	note E_, 4
	note F#, 4
	note G_, 4
	note E_, 4
	note F#, 8
	note D_, 4
	note F#, 8
	note D_, 4
	note F#, 8
	note D_, 4
	note F#, 8
	note D_, 4
	note F#, 4
	note G_, 4
	note A_, 4
	octave 4
	note D_, 4
	note C#, 4
	octave 3
	note B_, 4
	note B_, 4
	note A#, 8
	note G_, 8
	note F#, 8
	note E_, 8
	note D_, 8
	note C#, 4
	note E_, 4
	note F#, 4
	note G_, 4
	note A_, 4
	note G_, 4
	note C#, 8
	note D_, 4
	note E_, 4
	note F#, 8
	note E_, 4
	note D_, 4
	octave 2
	note B_, 8
	octave 3
	note C#, 4
	note E_, 4
	octave 2
	note B_, 4
	octave 3
	note E_, 4
	note C#, 4
	octave 2
	note G_, 4
	note F#, 4
	octave 3
	note F#, 4
	octave 4
	note F#, 4
	octave 3
	note F#, 4
	octave 2
	note B_, 4
	rest 16
	rest 16
	sound_jump .mainloop

Music_IronWhale_Ch3:
	note_type 6, 2, 3
	octave 5
	vibrato 0, 1, 2
	note F#, 1
	rest 3
	note D_, 1
	rest 1
	note F#, 1
	rest 1
	note C_, 1
	rest 1
	note D_, 1
	rest 1
	octave 4
	note G#, 1
	rest 1
	octave 5
	note C_, 1
	rest 1
	note F#, 1
	rest 1
	octave 4
	note G#, 1
	rest 1
	octave 5
	note D_, 1
	rest 1
	note F#, 1
	rest 1
	note C_, 1
	rest 1
	note D_, 1
	rest 1
	octave 4
	note G#, 1
	rest 1
	octave 5
	note C_, 1
	rest 1
	note F#, 1
	rest 1
	octave 4
	note G#, 1
	rest 1
	octave 5
	note D_, 1
	rest 1
	note F#, 1
	rest 1
	note C_, 1
	rest 1
	note D_, 1
	rest 1
	octave 4
	note G#, 1
	rest 1
	octave 5
	note C_, 1
	rest 1
	note F#, 1
	rest 1
	octave 4
	note G#, 1
	rest 1
	octave 5
	note D_, 1
	rest 1
	note F#, 1
	rest 1
	note C_, 1
	rest 1
	note D_, 1
	rest 1
	octave 4
	note G#, 1
	rest 1
	octave 5
	note C_, 1
	rest 1
	note F_, 1
	rest 1
	octave 4
	note G#, 1
	rest 1
	octave 5
	note C#, 1
	rest 1
	note F_, 1
	rest 1
	octave 4
	note B_, 1
	rest 1
	octave 5
	note C#, 1
	rest 1
	octave 4
	note G_, 1
	rest 1
	note B_, 1
	rest 1
	octave 5
	note F_, 1
	rest 1
	octave 4
	note G_, 1
	rest 1
	octave 5
	note C#, 1
	rest 1
	note F_, 1
	rest 1
	octave 4
	note B_, 1
	rest 1
	octave 5
	note C#, 1
	rest 1
	octave 4
	note G_, 1
	rest 1
	note B_, 1
	rest 1
	octave 5
	note F_, 1
	rest 1
	octave 4
	note G#, 1
	rest 1
	octave 5
	note C#, 1
	rest 1
	note F_, 1
	rest 1
	octave 4
	note B_, 1
	rest 1
	octave 5
	note C#, 1
	rest 1
	octave 4
	note G_, 1
	rest 1
	note B_, 1
	rest 1
	octave 5
	note F_, 1
	rest 1
	octave 4
	note G_, 1
	rest 1
	octave 5
	note C#, 1
	rest 1
	note F_, 1
	rest 1
	octave 4
	note B_, 1
	rest 1
	octave 5
	note C#, 1
	rest 1
	octave 4
	note G_, 1
	rest 1
	note B_, 1
	rest 1
	octave 5
	note E_, 1
	rest 1
	octave 4
	note G_, 1
	rest 1
	octave 5
	note C_, 1
	rest 1
	note E_, 1
	rest 1
	octave 4
	note A#, 1
	rest 1
	octave 5
	note C_, 1
	rest 1
	octave 4
	note F#, 1
	rest 1
	note A#, 1
	rest 1
	octave 5
	note E_, 1
	rest 1
	octave 4
	note F#, 1
	rest 1
	octave 5
	note C_, 1
	rest 1
	note E_, 1
	rest 1
	octave 4
	note A#, 1
	rest 1
	octave 5
	note C_, 1
	rest 1
	octave 4
	note F#, 1
	rest 1
	note A#, 1
	rest 1
	octave 5
	note E_, 1
	rest 1
	octave 4
	note F#, 1
	rest 1
	octave 5
	note C_, 1
	rest 1
	note E_, 1
	rest 1
	octave 4
	note A#, 1
	rest 1
	octave 5
	note C_, 1
	rest 1
	octave 4
	note F#, 1
	rest 1
	note A#, 1
	rest 1
	octave 5
	note E_, 1
	rest 1
	octave 4
	note F#, 1
	rest 1
	octave 5
	note C_, 1
	rest 1
	note E_, 1
	rest 1
	octave 4
	note A#, 1
	rest 1
	octave 5
	note C_, 1
	rest 1
	octave 4
	note G#, 1
	rest 1
	note A#, 1
	rest 1
	octave 5
	note F_, 1
	rest 1
	octave 4
	note G#, 1
	rest 1
	octave 5
	note C#, 1
	rest 1
	note F_, 1
	rest 1
	octave 4
	note B_, 1
	rest 1
	octave 5
	note C#, 1
	rest 1
	octave 4
	note G_, 1
	rest 1
	note B_, 1
	rest 1
	octave 5
	note F_, 1
	rest 1
	octave 4
	note G_, 1
	rest 1
	octave 5
	note C#, 1
	rest 1
	note F_, 1
	rest 1
	octave 4
	note B_, 1
	rest 1
	octave 5
	note C#, 1
	rest 1
	octave 4
	note G_, 1
	rest 1
	note B_, 1
	rest 1
	octave 5
	note F_, 1
	rest 1
	octave 4
	note G#, 1
	rest 1
	octave 5
	note C#, 1
	rest 1
	note F_, 1
	rest 1
	octave 4
	note B_, 1
	rest 1
	octave 5
	note C#, 1
	rest 1
	octave 4
	note G_, 1
	rest 1
	note B_, 1
	rest 1
	octave 5
	note F_, 1
	rest 1
	octave 4
	note G_, 1
	rest 1
	octave 5
	note C#, 1
	rest 1
	note F_, 1
	rest 1
	octave 4
	note B_, 1
	rest 1
	octave 5
	note C#, 1
	rest 1
	octave 4
	note G_, 1
	rest 1
	note B_, 1
	rest 1
	octave 5
	note F#, 1
	rest 1
	octave 4
	note G_, 1
	rest 1
	octave 5
	note D_, 1
	rest 1
	note F#, 1
	rest 1
	note C_, 1
	rest 1
	note D_, 1
	rest 1
	octave 4
	note G#, 1
	rest 1
	octave 5
	note C_, 1
	rest 1
	note F#, 1
	rest 1
	octave 4
	note G#, 1
	rest 1
	octave 5
	note D_, 1
	rest 1
	note F#, 1
	rest 1
	note C_, 1
	rest 1
	note D_, 1
	rest 1
	octave 4
	note G#, 1
	rest 1
	octave 5
	note C_, 1
	rest 1
	note F#, 1
	rest 1
	octave 4
	note G#, 1
	rest 1
	octave 5
	note D_, 1
	rest 1
	note F#, 1
	rest 1
	note C_, 1
	rest 1
	note D_, 1
	rest 1
	octave 4
	note G#, 1
	rest 1
	octave 5
	note C_, 1
	rest 1
	note F#, 1
	rest 1
	octave 4
	note G#, 1
	rest 1
	octave 5
	note D_, 1
	rest 1
	note F#, 1
	rest 1
	note C_, 1
	rest 1
	note D_, 1
	rest 1
	octave 4
	note G#, 1
	rest 1
	octave 5
	note C_, 1
	rest 1
	note F_, 1
	rest 1
	octave 4
	note G#, 1
	rest 1
	octave 5
	note C#, 1
	rest 1
	note F_, 1
	rest 1
	octave 4
	note B_, 1
	rest 1
	octave 5
	note C#, 1
	rest 1
	octave 4
	note G_, 1
	rest 1
	note B_, 1
	rest 1
	octave 5
	note F_, 1
	rest 1
	octave 4
	note G_, 1
	rest 1
	octave 5
	note C#, 1
	rest 1
	note F_, 1
	rest 1
	octave 4
	note B_, 1
	rest 1
	octave 5
	note C#, 1
	rest 1
	octave 4
	note G_, 1
	rest 1
	note B_, 1
	rest 1
	octave 5
	note F_, 1
	rest 1
	octave 4
	note G#, 1
	rest 1
	octave 5
	note C#, 1
	rest 1
	note F_, 1
	rest 1
	octave 4
	note B_, 1
	rest 1
	octave 5
	note C#, 1
	rest 1
	octave 4
	note G_, 1
	rest 1
	note B_, 1
	rest 1
	octave 5
	note F_, 1
	rest 1
	octave 4
	note G_, 1
	rest 1
	octave 5
	note C#, 1
	rest 1
	note F_, 1
	rest 1
	octave 4
	note B_, 1
	rest 1
	octave 5
	note C#, 1
	rest 1
	octave 4
	note G_, 1
	rest 1
	note B_, 1
	rest 1
	octave 5
	note E_, 1
	rest 1
	octave 4
	note G_, 1
	rest 1
	octave 5
	note C_, 1
	rest 1
	note E_, 1
	rest 1
	octave 4
	note A#, 1
	rest 1
	octave 5
	note C_, 1
	rest 1
	octave 4
	note F#, 1
	rest 1
	note A#, 1
	rest 1
	octave 5
	note E_, 1
	rest 1
	octave 4
	note F#, 1
	rest 1
	octave 5
	note C_, 1
	rest 1
	note E_, 1
	rest 1
	octave 4
	note A#, 1
	rest 1
	octave 5
	note C_, 1
	rest 1
	octave 4
	note F#, 1
	rest 1
	note A#, 1
	rest 1
	octave 5
	note E_, 1
	rest 1
	octave 4
	note G_, 1
	rest 1
	octave 5
	note C_, 1
	rest 1
	note E_, 1
	rest 1
	octave 4
	note A#, 1
	rest 1
	octave 5
	note C_, 1
	rest 1
	octave 4
	note F#, 1
	rest 1
	note A#, 1
	rest 1
	octave 5
	note E_, 1
	rest 1
	octave 4
	note F#, 1
	rest 1
	octave 5
	note C_, 1
	rest 1
	note E_, 1
	rest 1
	octave 4
	note A#, 1
	rest 1
	octave 5
	note C_, 1
	rest 1
	octave 4
	note G#, 1
	rest 1
	note A#, 1
	rest 1
	octave 5
	note F_, 1
	rest 1
	octave 4
	note G#, 1
	rest 1
	octave 5
	note C#, 1
	rest 1
	note F_, 1
	rest 1
	octave 4
	note B_, 1
	rest 1
	octave 5
	note C#, 1
	rest 1
	note F#, 1
	rest 1
	octave 4
	note B_, 1
	rest 1
	octave 5
	note D_, 1
	rest 1
	note F#, 1
	rest 1
	note C_, 1
	rest 1
	note D_, 1
	rest 1
	note G_, 1
	rest 1
	note C_, 1
	rest 1
	note D#, 1
	rest 1
	note G_, 1
	rest 1
	note C#, 1
	rest 1
	note D#, 1
	rest 1
	note G#, 1
	rest 1
	note C#, 1
	rest 1
	note E_, 1
	rest 1
	note G#, 1
	rest 1
	note D_, 1
	rest 1
	note E_, 1
	rest 3
	note D_, 1
	rest 13
.mainloop:
	note_type 6, 2, 3
	octave 5
	note F_, 1
	rest 3
	note C_, 1
	rest 1
	note F_, 1
	rest 1
	octave 4
	note B_, 1
	rest 1
	octave 5
	note C_, 1
	rest 1
	note C_, 1
	rest 1
	octave 4
	note B_, 1
	rest 1
	octave 5
	note F_, 1
	rest 1
	note C_, 1
	rest 1
	note C_, 1
	rest 1
	note F_, 1
	rest 1
	octave 4
	note B_, 1
	rest 1
	octave 5
	note C_, 1
	rest 1
	note C_, 1
	rest 1
	octave 4
	note B_, 1
	rest 1
	octave 5
	note F_, 1
	rest 1
	note C_, 1
	rest 1
	note C_, 1
	rest 1
	note F_, 1
	rest 1
	octave 4
	note B_, 1
	rest 1
	octave 5
	note C_, 1
	rest 1
	note C_, 1
	rest 1
	octave 4
	note B_, 1
	rest 1
	octave 5
	note F_, 1
	rest 1
	note C_, 1
	rest 1
	note C_, 1
	rest 1
	note F_, 1
	rest 1
	octave 4
	note B_, 1
	rest 1
	octave 5
	note C_, 1
	rest 1
	note C_, 1
	rest 1
	octave 4
	note B_, 1
	rest 1
	octave 5
	note F#, 1
	rest 1
	octave 4
	note B_, 1
	rest 1
	note B_, 1
	rest 1
	octave 5
	note F#, 1
	rest 1
	octave 4
	note A_, 1
	rest 1
	note B_, 1
	rest 1
	note B_, 1
	rest 1
	note A_, 1
	rest 1
	octave 5
	note F#, 1
	rest 1
	octave 4
	note B_, 1
	rest 1
	note B_, 1
	rest 1
	octave 5
	note F#, 1
	rest 1
	octave 4
	note A_, 1
	rest 1
	note B_, 1
	rest 1
	note B_, 1
	rest 1
	note A_, 1
	rest 1
	octave 5
	note F#, 1
	rest 1
	octave 4
	note B_, 1
	rest 1
	note B_, 1
	rest 1
	octave 5
	note F#, 1
	rest 1
	octave 4
	note A_, 1
	rest 1
	note B_, 1
	rest 1
	note B_, 1
	rest 1
	note A_, 1
	rest 1
	octave 5
	note F#, 1
	rest 1
	octave 4
	note B_, 1
	rest 1
	note B_, 1
	rest 1
	octave 5
	note F#, 1
	rest 1
	octave 4
	note A_, 1
	rest 1
	note B_, 1
	rest 1
	note B_, 1
	rest 1
	note A_, 1
	rest 1
	octave 5
	note F_, 1
	rest 1
	octave 4
	note B_, 1
	rest 1
	octave 5
	note C_, 1
	rest 1
	note F_, 1
	rest 1
	octave 4
	note B_, 1
	rest 1
	octave 5
	note C_, 1
	rest 1
	note C_, 1
	rest 1
	octave 4
	note B_, 1
	rest 1
	octave 5
	note F_, 1
	rest 1
	note C_, 1
	rest 1
	note C_, 1
	rest 1
	note F_, 1
	rest 1
	octave 4
	note B_, 1
	rest 1
	octave 5
	note C_, 1
	rest 1
	note C_, 1
	rest 1
	octave 4
	note B_, 1
	rest 1
	octave 5
	note F_, 1
	rest 1
	note C_, 1
	rest 1
	note C_, 1
	rest 1
	note F_, 1
	rest 1
	octave 4
	note B_, 1
	rest 1
	octave 5
	note C_, 1
	rest 1
	note C_, 1
	rest 1
	octave 4
	note B_, 1
	rest 1
	octave 5
	note F_, 1
	rest 1
	note C_, 1
	rest 1
	note C_, 1
	rest 1
	note F_, 1
	rest 1
	octave 4
	note B_, 1
	rest 1
	octave 5
	note C_, 1
	rest 1
	note C_, 1
	rest 1
	octave 4
	note B_, 1
	rest 1
	octave 5
	note F#, 1
	rest 1
	octave 4
	note B_, 1
	rest 1
	note B_, 1
	rest 1
	octave 5
	note F#, 1
	rest 1
	octave 4
	note A_, 1
	rest 1
	note B_, 1
	rest 1
	note B_, 1
	rest 1
	note A_, 1
	rest 1
	octave 5
	note F#, 1
	rest 1
	octave 4
	note B_, 1
	rest 1
	note B_, 1
	rest 1
	octave 5
	note F#, 1
	rest 1
	octave 4
	note A_, 1
	rest 1
	note B_, 1
	rest 1
	note B_, 1
	rest 1
	note A_, 1
	rest 1
	octave 5
	note F#, 1
	rest 1
	octave 4
	note B_, 1
	rest 1
	note B_, 1
	rest 1
	octave 5
	note F#, 1
	rest 1
	octave 4
	note A_, 1
	rest 1
	note B_, 1
	rest 1
	note B_, 1
	rest 1
	note A_, 1
	rest 1
	octave 5
	note F#, 1
	rest 1
	octave 4
	note B_, 1
	rest 1
	note B_, 1
	rest 1
	octave 5
	note F#, 1
	rest 1
	octave 4
	note A_, 1
	rest 1
	note B_, 1
	rest 1
	note B_, 1
	rest 1
	note A_, 1
	rest 1
	octave 5
	note F_, 1
	rest 1
	octave 4
	note B_, 1
	rest 1
	octave 5
	note C_, 1
	rest 1
	note F_, 1
	rest 1
	octave 4
	note B_, 1
	rest 1
	octave 5
	note C_, 1
	rest 1
	note C_, 1
	rest 1
	octave 4
	note B_, 1
	rest 1
	octave 5
	note F_, 1
	rest 1
	note C_, 1
	rest 1
	note C_, 1
	rest 1
	note F_, 1
	rest 1
	octave 4
	note B_, 1
	rest 1
	octave 5
	note C_, 1
	rest 1
	note C_, 1
	rest 1
	octave 4
	note B_, 1
	rest 1
	octave 5
	note F_, 1
	rest 1
	note C_, 1
	rest 1
	note C_, 1
	rest 1
	note F_, 1
	rest 1
	octave 4
	note B_, 1
	rest 1
	octave 5
	note C_, 1
	rest 1
	note C_, 1
	rest 1
	octave 4
	note B_, 1
	rest 1
	octave 5
	note F_, 1
	rest 1
	note C_, 1
	rest 1
	note C_, 1
	rest 1
	note F_, 1
	rest 1
	octave 4
	note B_, 1
	rest 1
	octave 5
	note C_, 1
	rest 1
	note C_, 1
	rest 1
	octave 4
	note B_, 1
	rest 1
	octave 5
	note F#, 1
	rest 1
	octave 4
	note B_, 1
	rest 1
	note B_, 1
	rest 1
	octave 5
	note F#, 1
	rest 1
	octave 4
	note A_, 1
	rest 1
	note B_, 1
	rest 1
	note B_, 1
	rest 1
	note A_, 1
	rest 1
	octave 5
	note F#, 1
	rest 1
	octave 4
	note B_, 1
	rest 1
	note B_, 1
	rest 1
	octave 5
	note F#, 1
	rest 1
	octave 4
	note A_, 1
	rest 1
	note B_, 1
	rest 1
	note B_, 1
	rest 1
	note A_, 1
	rest 1
	octave 5
	note F#, 1
	rest 1
	octave 4
	note B_, 1
	rest 1
	note B_, 1
	rest 1
	octave 5
	note F#, 1
	rest 1
	octave 4
	note A_, 1
	rest 1
	note B_, 1
	rest 1
	note B_, 1
	rest 1
	note A_, 1
	rest 1
	octave 5
	note F#, 1
	rest 1
	octave 4
	note B_, 1
	rest 1
	note B_, 1
	rest 1
	octave 5
	note F#, 1
	rest 1
	octave 4
	note A_, 1
	rest 1
	note B_, 1
	rest 1
	note B_, 1
	rest 1
	note A_, 1
	rest 1
	octave 5
	note E_, 1
	rest 1
	octave 4
	note B_, 1
	rest 1
	octave 5
	note C#, 1
	rest 1
	note E_, 1
	rest 1
	note G_, 1
	rest 1
	note C#, 1
	rest 1
	note C#, 1
	rest 1
	note G_, 1
	rest 1
	note E_, 1
	rest 1
	note C#, 1
	rest 1
	note C#, 1
	rest 1
	note E_, 1
	rest 1
	note G_, 1
	rest 1
	note C#, 1
	rest 1
	note C#, 1
	rest 1
	note G_, 1
	rest 1
	note E_, 1
	rest 1
	note C#, 1
	rest 1
	octave 4
	note A#, 1
	rest 1
	octave 5
	note E_, 1
	rest 1
	note F#, 1
	rest 1
	octave 4
	note A#, 1
	rest 1
	note A#, 1
	rest 1
	octave 5
	note F#, 1
	rest 1
	note E_, 1
	rest 1
	octave 4
	note A#, 1
	rest 1
	note A#, 1
	rest 1
	octave 5
	note E_, 1
	rest 1
	note F#, 1
	rest 1
	octave 4
	note A#, 1
	rest 1
	note A#, 1
	rest 1
	octave 5
	note F#, 1
	rest 16
	rest 16
	rest 16
	rest 16
	rest 16
	rest 16
	rest 16
	rest 16
	rest 16
	rest 16
	rest 16
	rest 16
	rest 16
	rest 16
	rest 16
	rest 16
	rest 16
	rest 16
	rest 16
	rest 16
	rest 16
	rest 16
	rest 16
	rest 16
	rest 16
	rest 16
	rest 16
	rest 16
	rest 16
	rest 16
	rest 16
	rest 16
	rest 1
	note F#, 2
	rest 2
	octave 4
	note F#, 2
	rest 2
	octave 6
	note D_, 2
	rest 2
	octave 5
	note D_, 2
	rest 2
	octave 4
	note B_, 2
	rest 2
	octave 3
	note B_, 2
	rest 2
	octave 5
	note B_, 2
	rest 2
	octave 4
	note B_, 2
	rest 2
	octave 6
	note D_, 2
	rest 2
	octave 5
	note D_, 2
	rest 2
	note F#, 2
	rest 2
	octave 4
	note F#, 2
	rest 2
	octave 5
	note B_, 2
	rest 2
	octave 4
	note B_, 2
	rest 2
	octave 5
	note F#, 2
	rest 2
	octave 4
	note F#, 2
	rest 2
	octave 5
	note E_, 2
	rest 2
	octave 4
	note E_, 2
	rest 2
	octave 6
	note C#, 2
	rest 2
	octave 5
	note C#, 2
	rest 2
	octave 4
	note A_, 2
	rest 2
	octave 3
	note A_, 2
	rest 2
	octave 5
	note A_, 2
	rest 2
	octave 4
	note A_, 2
	rest 2
	octave 6
	note C#, 2
	rest 2
	octave 5
	note C#, 2
	rest 2
	note E_, 2
	rest 2
	octave 4
	note E_, 2
	rest 2
	octave 5
	note A_, 2
	rest 2
	octave 4
	note A_, 2
	rest 2
	octave 5
	note E_, 2
	rest 2
	octave 4
	note E_, 2
	rest 2
	octave 5
	note D_, 2
	rest 2
	octave 4
	note D_, 2
	rest 2
	octave 5
	note A_, 2
	rest 2
	octave 4
	note A_, 2
	rest 2
	note F#, 2
	rest 2
	octave 3
	note F#, 2
	rest 2
	octave 5
	note D_, 2
	rest 2
	octave 4
	note D_, 2
	rest 2
	octave 6
	note D_, 2
	rest 2
	octave 5
	note D_, 2
	rest 2
	note F#, 2
	rest 2
	octave 4
	note F#, 2
	rest 2
	octave 5
	note A_, 2
	rest 2
	octave 4
	note A_, 2
	rest 2
	octave 5
	note D_, 2
	rest 2
	octave 4
	note D_, 2
	rest 2
	octave 6
	note C#, 2
	rest 2
	octave 5
	note C#, 2
	rest 2
	note G_, 2
	rest 2
	octave 4
	note G_, 2
	rest 2
	octave 6
	note E_, 2
	rest 2
	octave 5
	note E_, 2
	rest 2
	octave 4
	note B_, 2
	rest 2
	octave 3
	note B_, 2
	rest 2
	octave 5
	note F#, 2
	rest 2
	octave 4
	note F#, 2
	rest 2
	octave 6
	note C#, 2
	rest 2
	octave 5
	note C#, 2
	rest 2
	octave 6
	note E_, 2
	rest 2
	octave 5
	note E_, 2
	rest 2
	note F#, 2
	rest 2
	octave 4
	note F#, 2
	rest 2
	octave 5
	note F#, 2
	rest 2
	octave 4
	note F#, 2
	rest 2
	octave 6
	note D_, 2
	rest 2
	octave 5
	note D_, 2
	rest 2
	octave 4
	note B_, 2
	rest 2
	octave 3
	note B_, 2
	rest 2
	octave 5
	note B_, 2
	rest 2
	octave 4
	note B_, 2
	rest 2
	octave 6
	note D_, 2
	rest 2
	octave 5
	note D_, 2
	rest 2
	note F#, 2
	rest 2
	octave 4
	note F#, 2
	rest 2
	octave 5
	note B_, 2
	rest 2
	octave 4
	note B_, 2
	rest 2
	octave 5
	note F#, 2
	rest 2
	octave 4
	note F#, 2
	rest 2
	octave 5
	note E_, 2
	rest 2
	octave 4
	note E_, 2
	rest 2
	octave 6
	note C#, 2
	rest 2
	octave 5
	note C#, 2
	rest 2
	octave 4
	note A_, 2
	rest 2
	octave 3
	note A_, 2
	rest 2
	octave 5
	note A_, 2
	rest 2
	octave 4
	note A_, 2
	rest 2
	octave 6
	note C#, 2
	rest 2
	octave 5
	note C#, 2
	rest 2
	note E_, 2
	rest 2
	octave 4
	note E_, 2
	rest 2
	octave 5
	note A_, 2
	rest 2
	octave 4
	note A_, 2
	rest 2
	octave 5
	note E_, 2
	rest 2
	octave 4
	note E_, 2
	rest 2
	octave 5
	note D_, 2
	rest 2
	octave 4
	note D_, 2
	rest 2
	octave 5
	note A_, 2
	rest 2
	octave 4
	note A_, 2
	rest 2
	note F#, 2
	rest 2
	octave 3
	note F#, 2
	rest 2
	octave 5
	note D_, 2
	rest 2
	octave 4
	note D_, 2
	rest 2
	octave 6
	note D_, 2
	rest 2
	octave 5
	note D_, 2
	rest 2
	note F#, 2
	rest 2
	octave 4
	note F#, 2
	rest 2
	octave 5
	note A_, 2
	rest 2
	octave 4
	note A_, 2
	rest 2
	octave 5
	note D_, 2
	rest 2
	octave 4
	note D_, 2
	rest 2
	octave 6
	note C#, 2
	rest 2
	octave 5
	note C#, 2
	rest 2
	note G_, 2
	rest 2
	octave 4
	note G_, 2
	rest 2
	octave 6
	note E_, 2
	rest 2
	octave 5
	note E_, 2
	rest 2
	octave 4
	note B_, 2
	rest 2
	octave 3
	note B_, 2
	rest 2
	octave 5
	note F#, 2
	rest 2
	octave 4
	note F#, 2
	rest 2
	octave 6
	note C#, 2
	rest 2
	octave 5
	note C#, 2
	rest 2
	octave 6
	note E_, 2
	rest 2
	octave 5
	note E_, 2
	rest 2
	note F#, 2
	rest 2
	octave 4
	note F#, 2
	rest 16
	rest 16
	rest 16
	rest 16
	rest 16
	rest 16
	rest 16
	rest 16
	rest 2
	octave 5
	note F_, 1
	rest 3
	note C_, 1
	rest 1
	note F_, 1
	rest 1
	octave 4
	note B_, 1
	rest 1
	octave 5
	note C_, 1
	rest 1
	note C_, 1
	rest 1
	octave 4
	note B_, 1
	rest 1
	octave 5
	note F_, 1
	rest 1
	note C_, 1
	rest 1
	note C_, 1
	rest 1
	note F_, 1
	rest 1
	octave 4
	note B_, 1
	rest 1
	octave 5
	note C_, 1
	rest 1
	note C_, 1
	rest 1
	octave 4
	note B_, 1
	rest 1
	octave 5
	note F_, 1
	rest 1
	note C_, 1
	rest 1
	note C_, 1
	rest 1
	note F_, 1
	rest 1
	octave 4
	note B_, 1
	rest 1
	octave 5
	note C_, 1
	rest 1
	note C_, 1
	rest 1
	octave 4
	note B_, 1
	rest 1
	octave 5
	note F_, 1
	rest 1
	note C_, 1
	rest 1
	note C_, 1
	rest 1
	note F_, 1
	rest 1
	octave 4
	note B_, 1
	rest 1
	octave 5
	note C_, 1
	rest 1
	note C_, 1
	rest 1
	octave 4
	note B_, 1
	rest 1
	octave 5
	note F#, 1
	rest 1
	octave 4
	note B_, 1
	rest 1
	note B_, 1
	rest 1
	octave 5
	note F#, 1
	rest 1
	octave 4
	note A_, 1
	rest 1
	note B_, 1
	rest 1
	note B_, 1
	rest 1
	note A_, 1
	rest 1
	octave 5
	note F#, 1
	rest 1
	octave 4
	note B_, 1
	rest 1
	note B_, 1
	rest 1
	octave 5
	note F#, 1
	rest 1
	octave 4
	note A_, 1
	rest 1
	note B_, 1
	rest 1
	note B_, 1
	rest 1
	note A_, 1
	rest 1
	octave 5
	note F#, 1
	rest 1
	octave 4
	note B_, 1
	rest 1
	note B_, 1
	rest 1
	octave 5
	note F#, 1
	rest 1
	octave 4
	note A_, 1
	rest 1
	note B_, 1
	rest 1
	note B_, 1
	rest 1
	note A_, 1
	rest 1
	octave 5
	note F#, 1
	rest 1
	octave 4
	note B_, 1
	rest 1
	note B_, 1
	rest 1
	octave 5
	note F#, 1
	rest 1
	octave 4
	note A_, 1
	rest 1
	note B_, 1
	rest 1
	note B_, 1
	rest 1
	note A_, 1
	rest 1
	octave 5
	note F_, 1
	rest 1
	octave 4
	note B_, 1
	rest 1
	octave 5
	note C_, 1
	rest 1
	note F_, 1
	rest 1
	octave 4
	note B_, 1
	rest 1
	octave 5
	note C_, 1
	rest 1
	note C_, 1
	rest 1
	octave 4
	note B_, 1
	rest 1
	octave 5
	note F_, 1
	rest 1
	note C_, 1
	rest 1
	note C_, 1
	rest 1
	note F_, 1
	rest 1
	octave 4
	note B_, 1
	rest 1
	octave 5
	note C_, 1
	rest 1
	note C_, 1
	rest 1
	octave 4
	note B_, 1
	rest 1
	octave 5
	note F_, 1
	rest 1
	note C_, 1
	rest 1
	note C_, 1
	rest 1
	note F_, 1
	rest 1
	octave 4
	note B_, 1
	rest 1
	octave 5
	note C_, 1
	rest 1
	note C_, 1
	rest 1
	octave 4
	note B_, 1
	rest 1
	octave 5
	note F_, 1
	rest 1
	note C_, 1
	rest 1
	note C_, 1
	rest 1
	note F_, 1
	rest 1
	octave 4
	note B_, 1
	rest 1
	octave 5
	note C_, 1
	rest 1
	note C_, 1
	rest 1
	octave 4
	note B_, 1
	rest 1
	octave 5
	note F#, 1
	rest 1
	octave 4
	note B_, 1
	rest 1
	note B_, 1
	rest 1
	octave 5
	note F#, 1
	rest 1
	octave 4
	note A_, 1
	rest 1
	note B_, 1
	rest 1
	note B_, 1
	rest 1
	note A_, 1
	rest 1
	octave 5
	note F#, 1
	rest 1
	octave 4
	note B_, 1
	rest 1
	note B_, 1
	rest 1
	octave 5
	note F#, 1
	rest 1
	octave 4
	note A_, 1
	rest 1
	note B_, 1
	rest 1
	note B_, 1
	rest 1
	note A_, 1
	rest 1
	octave 5
	note F#, 1
	rest 1
	octave 4
	note B_, 1
	rest 1
	note B_, 1
	rest 1
	octave 5
	note F#, 1
	rest 1
	octave 4
	note A_, 1
	rest 1
	note B_, 1
	rest 1
	note B_, 1
	rest 1
	note A_, 1
	rest 1
	octave 5
	note F#, 1
	rest 1
	octave 4
	note B_, 1
	rest 1
	note B_, 1
	rest 1
	octave 5
	note F#, 1
	rest 1
	octave 4
	note A_, 1
	rest 1
	note B_, 1
	rest 1
	note B_, 1
	rest 1
	note A_, 1
	rest 1
	octave 5
	note F_, 1
	rest 1
	octave 4
	note B_, 1
	rest 1
	octave 5
	note C_, 1
	rest 1
	note F_, 1
	rest 1
	octave 4
	note B_, 1
	rest 1
	octave 5
	note C_, 1
	rest 1
	note C_, 1
	rest 1
	octave 4
	note B_, 1
	rest 1
	octave 5
	note F_, 1
	rest 1
	note C_, 1
	rest 1
	note C_, 1
	rest 1
	note F_, 1
	rest 1
	octave 4
	note B_, 1
	rest 1
	octave 5
	note C_, 1
	rest 1
	note C_, 1
	rest 1
	octave 4
	note B_, 1
	rest 1
	octave 5
	note F_, 1
	rest 1
	note C_, 1
	rest 1
	note C_, 1
	rest 1
	note F_, 1
	rest 1
	octave 4
	note B_, 1
	rest 1
	octave 5
	note C_, 1
	rest 1
	note C_, 1
	rest 1
	octave 4
	note B_, 1
	rest 1
	octave 5
	note F_, 1
	rest 1
	note C_, 1
	rest 1
	note C_, 1
	rest 1
	note F_, 1
	rest 1
	octave 4
	note B_, 1
	rest 1
	octave 5
	note C_, 1
	rest 1
	note C_, 1
	rest 1
	octave 4
	note B_, 1
	rest 1
	octave 5
	note F#, 1
	rest 1
	octave 4
	note B_, 1
	rest 1
	note B_, 1
	rest 1
	octave 5
	note F#, 1
	rest 1
	octave 4
	note A_, 1
	rest 1
	note B_, 1
	rest 1
	note B_, 1
	rest 1
	note A_, 1
	rest 1
	octave 5
	note F#, 1
	rest 1
	octave 4
	note B_, 1
	rest 1
	note B_, 1
	rest 1
	octave 5
	note F#, 1
	rest 1
	octave 4
	note A_, 1
	rest 1
	note B_, 1
	rest 1
	note B_, 1
	rest 1
	note A_, 1
	rest 1
	octave 5
	note F#, 1
	rest 1
	octave 4
	note B_, 1
	rest 1
	note B_, 1
	rest 1
	octave 5
	note F#, 1
	rest 1
	octave 4
	note A_, 1
	rest 1
	note B_, 1
	rest 1
	note B_, 1
	rest 1
	note A_, 1
	rest 1
	octave 5
	note F#, 1
	rest 1
	octave 4
	note B_, 1
	rest 1
	note B_, 1
	rest 1
	octave 5
	note F#, 1
	rest 1
	octave 4
	note A_, 1
	rest 1
	note B_, 1
	rest 1
	note B_, 1
	rest 1
	note A_, 1
	rest 1
	octave 5
	note E_, 1
	rest 1
	octave 4
	note B_, 1
	rest 1
	octave 5
	note C#, 1
	rest 1
	note E_, 1
	rest 1
	note G_, 1
	rest 1
	note C#, 1
	rest 1
	note C#, 1
	rest 1
	note G_, 1
	rest 1
	note E_, 1
	rest 1
	note C#, 1
	rest 1
	note C#, 1
	rest 1
	note E_, 1
	rest 1
	note G_, 1
	rest 1
	note C#, 1
	rest 1
	note C#, 1
	rest 1
	note G_, 1
	rest 1
	note E_, 1
	rest 1
	note C#, 1
	rest 1
	octave 4
	note A#, 1
	rest 1
	octave 5
	note E_, 1
	rest 1
	note F#, 1
	rest 1
	octave 4
	note A#, 1
	rest 1
	note A#, 1
	rest 1
	octave 5
	note F#, 1
	rest 1
	note E_, 1
	rest 1
	octave 4
	note A#, 1
	rest 1
	note A#, 1
	rest 1
	octave 5
	note E_, 1
	rest 1
	note F#, 1
	rest 1
	octave 4
	note A#, 1
	rest 1
	note A#, 1
	rest 1
	octave 5
	note F#, 1
	rest 16
	rest 16
	rest 16
	rest 16
	rest 16
	rest 16
	rest 16
	rest 16
	rest 16
	rest 16
	rest 16
	rest 16
	rest 16
	rest 16
	rest 16
	rest 16
	rest 16
	rest 16
	rest 16
	rest 16
	rest 16
	rest 16
	rest 16
	rest 16
	rest 16
	rest 16
	rest 16
	rest 16
	rest 16
	rest 16
	rest 16
	rest 16
	rest 1
	note F#, 2
	rest 2
	octave 4
	note F#, 2
	rest 2
	octave 6
	note D_, 2
	rest 2
	octave 5
	note D_, 2
	rest 2
	octave 4
	note B_, 2
	rest 2
	octave 3
	note B_, 2
	rest 2
	octave 5
	note B_, 2
	rest 2
	octave 4
	note B_, 2
	rest 2
	octave 6
	note D_, 2
	rest 2
	octave 5
	note D_, 2
	rest 2
	note F#, 2
	rest 2
	octave 4
	note F#, 2
	rest 2
	octave 5
	note B_, 2
	rest 2
	octave 4
	note B_, 2
	rest 2
	octave 5
	note F#, 2
	rest 2
	octave 4
	note F#, 2
	rest 2
	octave 5
	note E_, 2
	rest 2
	octave 4
	note E_, 2
	rest 2
	octave 6
	note C#, 2
	rest 2
	octave 5
	note C#, 2
	rest 2
	octave 4
	note A_, 2
	rest 2
	octave 3
	note A_, 2
	rest 2
	octave 5
	note A_, 2
	rest 2
	octave 4
	note A_, 2
	rest 2
	octave 6
	note C#, 2
	rest 2
	octave 5
	note C#, 2
	rest 2
	note E_, 2
	rest 2
	octave 4
	note E_, 2
	rest 2
	octave 5
	note A_, 2
	rest 2
	octave 4
	note A_, 2
	rest 2
	octave 5
	note E_, 2
	rest 2
	octave 4
	note E_, 2
	rest 2
	octave 5
	note D_, 2
	rest 2
	octave 4
	note D_, 2
	rest 2
	octave 5
	note A_, 2
	rest 2
	octave 4
	note A_, 2
	rest 2
	note F#, 2
	rest 2
	octave 3
	note F#, 2
	rest 2
	octave 5
	note D_, 2
	rest 2
	octave 4
	note D_, 2
	rest 2
	octave 6
	note D_, 2
	rest 2
	octave 5
	note D_, 2
	rest 2
	note F#, 2
	rest 2
	octave 4
	note F#, 2
	rest 2
	octave 5
	note A_, 2
	rest 2
	octave 4
	note A_, 2
	rest 2
	octave 5
	note D_, 2
	rest 2
	octave 4
	note D_, 2
	rest 2
	octave 6
	note C#, 2
	rest 2
	octave 5
	note C#, 2
	rest 2
	note G_, 2
	rest 2
	octave 4
	note G_, 2
	rest 2
	octave 6
	note E_, 2
	rest 2
	octave 5
	note E_, 2
	rest 2
	octave 4
	note B_, 2
	rest 2
	octave 3
	note B_, 2
	rest 2
	octave 5
	note F#, 2
	rest 2
	octave 4
	note F#, 2
	rest 2
	octave 6
	note C#, 2
	rest 2
	octave 5
	note C#, 2
	rest 2
	octave 6
	note E_, 2
	rest 2
	octave 5
	note E_, 2
	rest 2
	note F#, 2
	rest 2
	octave 4
	note F#, 2
	rest 2
	octave 5
	note F#, 2
	rest 2
	octave 4
	note F#, 2
	rest 2
	octave 6
	note D_, 2
	rest 2
	octave 5
	note D_, 2
	rest 2
	octave 4
	note B_, 2
	rest 2
	octave 3
	note B_, 2
	rest 2
	octave 5
	note B_, 2
	rest 2
	octave 4
	note B_, 2
	rest 2
	octave 6
	note D_, 2
	rest 2
	octave 5
	note D_, 2
	rest 2
	note F#, 2
	rest 2
	octave 4
	note F#, 2
	rest 2
	octave 5
	note B_, 2
	rest 2
	octave 4
	note B_, 2
	rest 2
	octave 5
	note F#, 2
	rest 2
	octave 4
	note F#, 2
	rest 2
	octave 5
	note E_, 2
	rest 2
	octave 4
	note E_, 2
	rest 2
	octave 6
	note C#, 2
	rest 2
	octave 5
	note C#, 2
	rest 2
	octave 4
	note A_, 2
	rest 2
	octave 3
	note A_, 2
	rest 2
	octave 5
	note A_, 2
	rest 2
	octave 4
	note A_, 2
	rest 2
	octave 6
	note C#, 2
	rest 2
	octave 5
	note C#, 2
	rest 2
	note E_, 2
	rest 2
	octave 4
	note E_, 2
	rest 2
	octave 5
	note A_, 2
	rest 2
	octave 4
	note A_, 2
	rest 2
	octave 5
	note E_, 2
	rest 2
	octave 4
	note E_, 2
	rest 2
	octave 5
	note D_, 2
	rest 2
	octave 4
	note D_, 2
	rest 2
	octave 5
	note A_, 2
	rest 2
	octave 4
	note A_, 2
	rest 2
	note F#, 2
	rest 2
	octave 3
	note F#, 2
	rest 2
	octave 5
	note D_, 2
	rest 2
	octave 4
	note D_, 2
	rest 2
	octave 6
	note D_, 2
	rest 2
	octave 5
	note D_, 2
	rest 2
	note F#, 2
	rest 2
	octave 4
	note F#, 2
	rest 2
	octave 5
	note A_, 2
	rest 2
	octave 4
	note A_, 2
	rest 2
	octave 5
	note D_, 2
	rest 2
	octave 4
	note D_, 2
	rest 2
	octave 6
	note C#, 2
	rest 2
	octave 5
	note C#, 2
	rest 2
	note G_, 2
	rest 2
	octave 4
	note G_, 2
	rest 2
	octave 6
	note E_, 2
	rest 2
	octave 5
	note E_, 2
	rest 2
	octave 4
	note B_, 2
	rest 2
	octave 3
	note B_, 2
	rest 2
	octave 5
	note F#, 2
	rest 2
	octave 4
	note F#, 2
	rest 2
	octave 6
	note C#, 2
	rest 2
	octave 5
	note C#, 2
	rest 2
	octave 6
	note E_, 2
	rest 2
	octave 5
	note E_, 2
	rest 2
	note F#, 2
	rest 2
	octave 4
	note F#, 2
	rest 16
	rest 16
	rest 16
	rest 16
	rest 16
	rest 16
	rest 16
	rest 16
	rest 2
	octave 5
	note F_, 1
	rest 3
	note C_, 1
	rest 1
	note F_, 1
	rest 1
	octave 4
	note B_, 1
	rest 1
	octave 5
	note C_, 1
	rest 1
	note C_, 1
	rest 1
	octave 4
	note B_, 1
	rest 1
	octave 5
	note F_, 1
	rest 1
	note C_, 1
	rest 1
	note C_, 1
	rest 1
	note F_, 1
	rest 1
	octave 4
	note B_, 1
	rest 1
	octave 5
	note C_, 1
	rest 1
	note C_, 1
	rest 1
	octave 4
	note B_, 1
	rest 1
	octave 5
	note F_, 1
	rest 1
	note C_, 1
	rest 1
	note C_, 1
	rest 1
	note F_, 1
	rest 1
	octave 4
	note B_, 1
	rest 1
	octave 5
	note C_, 1
	rest 1
	note C_, 1
	rest 1
	octave 4
	note B_, 1
	rest 1
	octave 5
	note F_, 1
	rest 1
	note C_, 1
	rest 1
	note C_, 1
	rest 1
	note F_, 1
	rest 1
	octave 4
	note B_, 1
	rest 1
	octave 5
	note C_, 1
	rest 1
	note C_, 1
	rest 1
	octave 4
	note B_, 1
	rest 1
	octave 5
	note F#, 1
	rest 1
	octave 4
	note B_, 1
	rest 1
	note B_, 1
	rest 1
	octave 5
	note F#, 1
	rest 1
	octave 4
	note A_, 1
	rest 1
	note B_, 1
	rest 1
	note B_, 1
	rest 1
	note A_, 1
	rest 1
	octave 5
	note F#, 1
	rest 1
	octave 4
	note B_, 1
	rest 1
	note B_, 1
	rest 1
	octave 5
	note F#, 1
	rest 1
	octave 4
	note A_, 1
	rest 1
	note B_, 1
	rest 1
	note B_, 1
	rest 1
	note A_, 1
	rest 1
	octave 5
	note F#, 1
	rest 1
	octave 4
	note B_, 1
	rest 1
	note B_, 1
	rest 1
	octave 5
	note F#, 1
	rest 1
	octave 4
	note A_, 1
	rest 1
	note B_, 1
	rest 1
	note B_, 1
	rest 1
	note A_, 1
	rest 1
	octave 5
	note F#, 1
	rest 1
	octave 4
	note B_, 1
	rest 1
	note B_, 1
	rest 1
	octave 5
	note F#, 1
	rest 1
	octave 4
	note A_, 1
	rest 1
	note B_, 1
	rest 1
	note B_, 1
	rest 1
	note A_, 1
	rest 1
	octave 5
	note F_, 1
	rest 1
	octave 4
	note B_, 1
	rest 1
	octave 5
	note C_, 1
	rest 1
	note F_, 1
	rest 1
	octave 4
	note B_, 1
	rest 1
	octave 5
	note C_, 1
	rest 1
	note C_, 1
	rest 1
	octave 4
	note B_, 1
	rest 1
	octave 5
	note F_, 1
	rest 1
	note C_, 1
	rest 1
	note C_, 1
	rest 1
	note F_, 1
	rest 1
	octave 4
	note B_, 1
	rest 1
	octave 5
	note C_, 1
	rest 1
	note C_, 1
	rest 1
	octave 4
	note B_, 1
	rest 1
	octave 5
	note F_, 1
	rest 1
	note C_, 1
	rest 1
	note C_, 1
	rest 1
	note F_, 1
	rest 1
	octave 4
	note B_, 1
	rest 1
	octave 5
	note C_, 1
	rest 1
	note C_, 1
	rest 1
	octave 4
	note B_, 1
	rest 1
	octave 5
	note F_, 1
	rest 1
	note C_, 1
	rest 1
	note C_, 1
	rest 1
	note F_, 1
	rest 1
	octave 4
	note B_, 1
	rest 1
	octave 5
	note C_, 1
	rest 1
	note C_, 1
	rest 1
	octave 4
	note B_, 1
	rest 1
	octave 5
	note F#, 1
	rest 1
	octave 4
	note B_, 1
	rest 1
	note B_, 1
	rest 1
	octave 5
	note F#, 1
	rest 1
	octave 4
	note A_, 1
	rest 1
	note B_, 1
	rest 1
	note B_, 1
	rest 1
	note A_, 1
	rest 1
	octave 5
	note F#, 1
	rest 1
	octave 4
	note B_, 1
	rest 1
	note B_, 1
	rest 1
	octave 5
	note F#, 1
	rest 1
	octave 4
	note A_, 1
	rest 1
	note B_, 1
	rest 1
	note B_, 1
	rest 1
	note A_, 1
	rest 1
	octave 5
	note F#, 1
	rest 1
	octave 4
	note B_, 1
	rest 1
	note B_, 1
	rest 1
	octave 5
	note F#, 1
	rest 1
	octave 4
	note A_, 1
	rest 1
	note B_, 1
	rest 1
	note B_, 1
	rest 1
	note A_, 1
	rest 1
	octave 5
	note F#, 1
	rest 1
	octave 4
	note B_, 1
	rest 1
	note B_, 1
	rest 1
	octave 5
	note F#, 1
	rest 1
	octave 4
	note A_, 1
	rest 1
	note B_, 1
	rest 1
	note B_, 1
	rest 1
	note A_, 1
	rest 1
	octave 5
	note F_, 1
	rest 1
	octave 4
	note B_, 1
	rest 1
	octave 5
	note C_, 1
	rest 1
	note F_, 1
	rest 1
	octave 4
	note B_, 1
	rest 1
	octave 5
	note C_, 1
	rest 1
	note C_, 1
	rest 1
	octave 4
	note B_, 1
	rest 1
	octave 5
	note F_, 1
	rest 1
	note C_, 1
	rest 1
	note C_, 1
	rest 1
	note F_, 1
	rest 1
	octave 4
	note B_, 1
	rest 1
	octave 5
	note C_, 1
	rest 1
	note C_, 1
	rest 1
	octave 4
	note B_, 1
	rest 1
	octave 5
	note F_, 1
	rest 1
	note C_, 1
	rest 1
	note C_, 1
	rest 1
	note F_, 1
	rest 1
	octave 4
	note B_, 1
	rest 1
	octave 5
	note C_, 1
	rest 1
	note C_, 1
	rest 1
	octave 4
	note B_, 1
	rest 1
	octave 5
	note F_, 1
	rest 1
	note C_, 1
	rest 1
	note C_, 1
	rest 1
	note F_, 1
	rest 1
	octave 4
	note B_, 1
	rest 1
	octave 5
	note C_, 1
	rest 1
	note C_, 1
	rest 1
	octave 4
	note B_, 1
	rest 1
	octave 5
	note F#, 1
	rest 1
	octave 4
	note B_, 1
	rest 1
	note B_, 1
	rest 1
	octave 5
	note F#, 1
	rest 1
	octave 4
	note A_, 1
	rest 1
	note B_, 1
	rest 1
	note B_, 1
	rest 1
	note A_, 1
	rest 1
	octave 5
	note F#, 1
	rest 1
	octave 4
	note B_, 1
	rest 1
	note B_, 1
	rest 1
	octave 5
	note F#, 1
	rest 1
	octave 4
	note A_, 1
	rest 1
	note B_, 1
	rest 1
	note B_, 1
	rest 1
	note A_, 1
	rest 1
	octave 5
	note F#, 1
	rest 1
	octave 4
	note B_, 1
	rest 1
	note B_, 1
	rest 1
	octave 5
	note F#, 1
	rest 1
	octave 4
	note A_, 1
	rest 1
	note B_, 1
	rest 1
	note B_, 1
	rest 1
	note A_, 1
	rest 1
	octave 5
	note F#, 1
	rest 1
	octave 4
	note B_, 1
	rest 1
	note B_, 1
	rest 1
	octave 5
	note F#, 1
	rest 1
	octave 4
	note A_, 1
	rest 1
	note B_, 1
	rest 1
	note B_, 1
	rest 1
	note A_, 1
	rest 1
	octave 5
	note E_, 1
	rest 1
	octave 4
	note B_, 1
	rest 1
	octave 5
	note C#, 1
	rest 1
	note E_, 1
	rest 1
	note G_, 1
	rest 1
	note C#, 1
	rest 1
	note C#, 1
	rest 1
	note G_, 1
	rest 1
	note E_, 1
	rest 1
	note C#, 1
	rest 1
	note C#, 1
	rest 1
	note E_, 1
	rest 1
	note G_, 1
	rest 1
	note C#, 1
	rest 1
	note C#, 1
	rest 1
	note G_, 1
	rest 1
	note E_, 1
	rest 1
	note C#, 1
	rest 1
	octave 4
	note A#, 1
	rest 1
	octave 5
	note E_, 1
	rest 1
	note F#, 1
	rest 1
	octave 4
	note A#, 1
	rest 1
	note A#, 1
	rest 1
	octave 5
	note F#, 1
	rest 1
	note E_, 1
	rest 1
	octave 4
	note A#, 1
	rest 1
	note A#, 1
	rest 1
	octave 5
	note E_, 1
	rest 1
	note F#, 1
	rest 1
	octave 4
	note A#, 1
	rest 1
	note A#, 1
	rest 1
	octave 5
	note F#, 1
	rest 16
	rest 16
	rest 16
	rest 16
	rest 16
	rest 16
	rest 16
	rest 16
	rest 16
	rest 16
	rest 16
	rest 16
	rest 16
	rest 16
	rest 16
	rest 16
	rest 16
	rest 16
	rest 16
	rest 16
	rest 16
	rest 16
	rest 16
	rest 16
	rest 16
	rest 16
	rest 16
	rest 16
	rest 16
	rest 16
	rest 16
	rest 16
	rest 1
	note F#, 2
	rest 2
	octave 4
	note F#, 2
	rest 2
	octave 6
	note D_, 2
	rest 2
	octave 5
	note D_, 2
	rest 2
	octave 4
	note B_, 2
	rest 2
	octave 3
	note B_, 2
	rest 2
	octave 5
	note B_, 2
	rest 2
	octave 4
	note B_, 2
	rest 2
	octave 6
	note D_, 2
	rest 2
	octave 5
	note D_, 2
	rest 2
	note F#, 2
	rest 2
	octave 4
	note F#, 2
	rest 2
	octave 5
	note B_, 2
	rest 2
	octave 4
	note B_, 2
	rest 2
	octave 5
	note F#, 2
	rest 2
	octave 4
	note F#, 2
	rest 2
	octave 5
	note E_, 2
	rest 2
	octave 4
	note E_, 2
	rest 2
	octave 6
	note C#, 2
	rest 2
	octave 5
	note C#, 2
	rest 2
	octave 4
	note A_, 2
	rest 2
	octave 3
	note A_, 2
	rest 2
	octave 5
	note A_, 2
	rest 2
	octave 4
	note A_, 2
	rest 2
	octave 6
	note C#, 2
	rest 2
	octave 5
	note C#, 2
	rest 2
	note E_, 2
	rest 2
	octave 4
	note E_, 2
	rest 2
	octave 5
	note A_, 2
	rest 2
	octave 4
	note A_, 2
	rest 2
	octave 5
	note E_, 2
	rest 2
	octave 4
	note E_, 2
	rest 2
	octave 5
	note D_, 2
	rest 2
	octave 4
	note D_, 2
	rest 2
	octave 5
	note A_, 2
	rest 2
	octave 4
	note A_, 2
	rest 2
	note F#, 2
	rest 2
	octave 3
	note F#, 2
	rest 2
	octave 5
	note D_, 2
	rest 2
	octave 4
	note D_, 2
	rest 2
	octave 6
	note D_, 2
	rest 2
	octave 5
	note D_, 2
	rest 2
	note F#, 2
	rest 2
	octave 4
	note F#, 2
	rest 2
	octave 5
	note A_, 2
	rest 2
	octave 4
	note A_, 2
	rest 2
	octave 5
	note D_, 2
	rest 2
	octave 4
	note D_, 2
	rest 2
	octave 6
	note C#, 2
	rest 2
	octave 5
	note C#, 2
	rest 2
	note G_, 2
	rest 2
	octave 4
	note G_, 2
	rest 2
	octave 6
	note E_, 2
	rest 2
	octave 5
	note E_, 2
	rest 2
	octave 4
	note B_, 2
	rest 2
	octave 3
	note B_, 2
	rest 2
	octave 5
	note F#, 2
	rest 2
	octave 4
	note F#, 2
	rest 2
	octave 6
	note C#, 2
	rest 2
	octave 5
	note C#, 2
	rest 2
	octave 6
	note E_, 2
	rest 2
	octave 5
	note E_, 2
	rest 2
	note F#, 2
	rest 2
	octave 4
	note F#, 2
	rest 2
	octave 5
	note F#, 2
	rest 2
	octave 4
	note F#, 2
	rest 2
	octave 6
	note D_, 2
	rest 2
	octave 5
	note D_, 2
	rest 2
	octave 4
	note B_, 2
	rest 2
	octave 3
	note B_, 2
	rest 2
	octave 5
	note B_, 2
	rest 2
	octave 4
	note B_, 2
	rest 2
	octave 6
	note D_, 2
	rest 2
	octave 5
	note D_, 2
	rest 2
	note F#, 2
	rest 2
	octave 4
	note F#, 2
	rest 2
	octave 5
	note B_, 2
	rest 2
	octave 4
	note B_, 2
	rest 2
	octave 5
	note F#, 2
	rest 2
	octave 4
	note F#, 2
	rest 2
	octave 5
	note E_, 2
	rest 2
	octave 4
	note E_, 2
	rest 2
	octave 6
	note C#, 2
	rest 2
	octave 5
	note C#, 2
	rest 2
	octave 4
	note A_, 2
	rest 2
	octave 3
	note A_, 2
	rest 2
	octave 5
	note A_, 2
	rest 2
	octave 4
	note A_, 2
	rest 2
	octave 6
	note C#, 2
	rest 2
	octave 5
	note C#, 2
	rest 2
	note E_, 2
	rest 2
	octave 4
	note E_, 2
	rest 2
	octave 5
	note A_, 2
	rest 2
	octave 4
	note A_, 2
	rest 2
	octave 5
	note E_, 2
	rest 2
	octave 4
	note E_, 2
	rest 2
	octave 5
	note D_, 2
	rest 2
	octave 4
	note D_, 2
	rest 2
	octave 5
	note A_, 2
	rest 2
	octave 4
	note A_, 2
	rest 2
	note F#, 2
	rest 2
	octave 3
	note F#, 2
	rest 2
	octave 5
	note D_, 2
	rest 2
	octave 4
	note D_, 2
	rest 2
	octave 6
	note D_, 2
	rest 2
	octave 5
	note D_, 2
	rest 2
	note F#, 2
	rest 2
	octave 4
	note F#, 2
	rest 2
	octave 5
	note A_, 2
	rest 2
	octave 4
	note A_, 2
	rest 2
	octave 5
	note D_, 2
	rest 2
	octave 4
	note D_, 2
	rest 2
	octave 6
	note C#, 2
	rest 2
	octave 5
	note C#, 2
	rest 2
	note G_, 2
	rest 2
	octave 4
	note G_, 2
	rest 2
	octave 6
	note E_, 2
	rest 2
	octave 5
	note E_, 2
	rest 2
	octave 4
	note B_, 2
	rest 2
	octave 3
	note B_, 2
	rest 2
	octave 5
	note F#, 2
	rest 2
	octave 4
	note F#, 2
	rest 2
	octave 6
	note C#, 2
	rest 2
	octave 5
	note C#, 2
	rest 2
	octave 6
	note E_, 2
	rest 2
	octave 5
	note E_, 2
	rest 2
	note F#, 2
	rest 2
	octave 4
	note F#, 2
	rest 16
	rest 16
	rest 16
	rest 16
	rest 16
	rest 16
	rest 16
	rest 16
	rest 2
	sound_jump .mainloop

Music_IronWhale_Ch4:
	toggle_noise 1
	drum_speed 6
	rest 16
	rest 16
	rest 16
	rest 16
	rest 16
	rest 16
	rest 16
	rest 16
	rest 16
	rest 16
	rest 16
	rest 16
	rest 16
	rest 16
	rest 4
	toggle_noise
	toggle_noise 4
	drum_note 3, 16
	drum_note 5, 4
	drum_note 5, 4
	drum_note 5, 8
	drum_note 5, 4
	drum_note 5, 4
	drum_note 7, 4
	drum_note 9, 4
	drum_note 7, 4
	drum_note 5, 4
	drum_note 5, 8
	drum_note 5, 4
	drum_note 5, 4
	drum_note 7, 4
	drum_note 9, 4
	drum_note 7, 4
	drum_note 5, 4
	drum_note 5, 8
	drum_note 5, 4
	drum_note 5, 4
	drum_note 7, 4
	drum_note 9, 4
	drum_note 7, 4
	drum_note 5, 4
	drum_note 5, 8
	drum_note 5, 4
	drum_note 5, 4
	drum_note 7, 4
	drum_note 9, 4
	drum_note 7, 4
	drum_note 5, 4
	drum_note 5, 8
	drum_note 5, 4
	drum_note 5, 4
	drum_note 7, 4
	drum_note 9, 4
	drum_note 7, 4
	drum_note 5, 4
	drum_note 5, 8
	drum_note 5, 4
	drum_note 5, 4
	drum_note 7, 4
	drum_note 9, 4
	drum_note 7, 4
	drum_note 5, 4
	drum_note 5, 8
	drum_note 5, 4
	drum_note 5, 4
	drum_note 7, 4
	drum_note 9, 4
	drum_note 7, 4
	drum_note 5, 4
	drum_note 5, 8
	drum_note 5, 4
	drum_note 5, 4
	drum_note 7, 4
	drum_note 9, 4
	drum_note 7, 4
	drum_note 5, 4
	drum_note 5, 4
.mainloop:
	drum_speed 6
	drum_note 5, 4
	drum_note 5, 4
	drum_note 5, 4
	drum_note 7, 4
	drum_note 9, 4
	drum_note 7, 4
	drum_note 5, 4
	drum_note 5, 8
	drum_note 5, 4
	drum_note 5, 4
	drum_note 7, 4
	drum_note 9, 4
	drum_note 7, 4
	drum_note 5, 4
	drum_note 5, 8
	drum_note 5, 4
	drum_note 5, 4
	drum_note 7, 4
	drum_note 9, 4
	drum_note 7, 4
	drum_note 5, 4
	drum_note 5, 8
	drum_note 5, 4
	drum_note 5, 4
	drum_note 7, 4
	drum_note 9, 4
	drum_note 7, 4
	drum_note 5, 4
	drum_note 5, 8
	drum_note 5, 4
	drum_note 5, 4
	drum_note 7, 4
	drum_note 9, 4
	drum_note 7, 4
	drum_note 5, 4
	drum_note 5, 8
	drum_note 5, 4
	drum_note 5, 4
	drum_note 7, 4
	drum_note 9, 4
	drum_note 7, 4
	drum_note 5, 4
	drum_note 5, 8
	drum_note 5, 4
	drum_note 5, 4
	drum_note 7, 4
	drum_note 9, 4
	drum_note 7, 4
	drum_note 5, 4
	drum_note 5, 8
	drum_note 5, 4
	drum_note 5, 4
	drum_note 7, 4
	drum_note 9, 4
	drum_note 7, 4
	drum_note 5, 4
	drum_note 5, 8
	drum_note 5, 4
	drum_note 5, 4
	drum_note 7, 4
	drum_note 9, 4
	drum_note 7, 4
	drum_note 5, 4
	drum_note 5, 8
	drum_note 5, 4
	drum_note 5, 4
	drum_note 7, 4
	drum_note 9, 4
	drum_note 7, 4
	drum_note 5, 4
	drum_note 5, 8
	drum_note 5, 4
	drum_note 5, 4
	drum_note 7, 4
	drum_note 9, 4
	drum_note 7, 4
	drum_note 5, 4
	drum_note 5, 8
	drum_note 5, 4
	drum_note 5, 4
	drum_note 7, 4
	drum_note 9, 4
	drum_note 7, 4
	drum_note 5, 4
	drum_note 5, 8
	drum_note 5, 4
	drum_note 5, 4
	drum_note 7, 4
	drum_note 9, 4
	drum_note 7, 4
	drum_note 5, 4
	drum_note 5, 8
	drum_note 5, 4
	drum_note 5, 4
	drum_note 7, 4
	drum_note 9, 4
	drum_note 7, 4
	drum_note 5, 4
	drum_note 5, 4
	drum_note 12, 4
	drum_note 5, 4
	drum_note 5, 4
	drum_note 7, 4
	drum_note 9, 4
	drum_note 7, 4
	drum_note 5, 4
	drum_note 5, 4
	drum_note 12, 4
	drum_note 5, 4
	drum_note 5, 4
	drum_note 7, 4
	drum_note 9, 4
	drum_note 7, 4
	drum_note 5, 4
	drum_note 5, 4
	drum_note 12, 4
	drum_note 5, 4
	drum_note 5, 4
	drum_note 7, 4
	drum_note 9, 4
	drum_note 7, 4
	drum_note 5, 4
	drum_note 5, 4
	drum_note 12, 4
	drum_note 5, 4
	drum_note 5, 4
	drum_note 7, 4
	drum_note 9, 4
	drum_note 7, 4
	drum_note 5, 4
	drum_note 5, 4
	drum_note 12, 4
	drum_note 5, 4
	drum_note 5, 4
	drum_note 7, 4
	drum_note 9, 4
	drum_note 7, 4
	drum_note 5, 4
	drum_note 5, 4
	drum_note 12, 4
	drum_note 5, 4
	drum_note 5, 4
	drum_note 7, 4
	drum_note 9, 4
	drum_note 7, 4
	drum_note 5, 4
	drum_note 5, 4
	drum_note 12, 4
	drum_note 5, 4
	drum_note 5, 4
	drum_note 7, 4
	drum_note 9, 4
	drum_note 7, 4
	drum_note 5, 4
	drum_note 5, 4
	drum_note 12, 4
	drum_note 5, 4
	drum_note 5, 4
	drum_note 7, 4
	drum_note 9, 4
	drum_note 7, 4
	drum_note 5, 4
	drum_note 5, 4
	drum_note 12, 4
	drum_note 5, 4
	drum_note 5, 4
	drum_note 7, 4
	drum_note 9, 4
	drum_note 7, 4
	drum_note 5, 4
	drum_note 5, 4
	drum_note 12, 4
	drum_note 5, 4
	drum_note 5, 4
	drum_note 7, 4
	drum_note 9, 4
	drum_note 7, 4
	drum_note 5, 4
	drum_note 5, 4
	drum_note 12, 4
	drum_note 5, 4
	drum_note 5, 4
	drum_note 7, 4
	drum_note 9, 4
	drum_note 7, 4
	drum_note 5, 4
	drum_note 5, 4
	drum_note 12, 4
	drum_note 5, 4
	drum_note 5, 4
	drum_note 7, 4
	drum_note 9, 4
	drum_note 7, 4
	drum_note 5, 4
	drum_note 5, 4
	drum_note 12, 4
	drum_note 5, 4
	drum_note 5, 4
	drum_note 7, 4
	drum_note 9, 4
	drum_note 7, 4
	drum_note 5, 4
	drum_note 5, 4
	drum_note 12, 4
	drum_note 5, 4
	drum_note 5, 4
	drum_note 7, 4
	drum_note 9, 4
	drum_note 7, 4
	drum_note 5, 4
	drum_note 5, 4
	drum_note 12, 4
	drum_note 5, 4
	drum_note 5, 4
	drum_note 7, 4
	drum_note 9, 4
	drum_note 7, 4
	drum_note 5, 4
	drum_note 5, 4
	drum_note 12, 4
	drum_note 5, 4
	drum_note 5, 4
	drum_note 7, 4
	drum_note 9, 4
	drum_note 7, 4
	drum_note 5, 4
	drum_note 5, 4
	drum_note 7, 4
	drum_note 5, 4
	drum_note 5, 4
	drum_note 7, 4
	drum_note 9, 4
	drum_note 7, 4
	drum_note 5, 4
	drum_note 5, 4
	drum_note 7, 4
	drum_note 5, 4
	drum_note 5, 4
	drum_note 7, 4
	drum_note 9, 4
	drum_note 7, 4
	drum_note 5, 4
	drum_note 5, 4
	drum_note 7, 4
	drum_note 5, 4
	drum_note 5, 4
	drum_note 7, 4
	drum_note 9, 4
	drum_note 7, 4
	drum_note 5, 4
	drum_note 5, 4
	drum_note 7, 4
	drum_note 5, 4
	drum_note 5, 4
	drum_note 7, 4
	drum_note 9, 4
	drum_note 7, 4
	drum_note 5, 4
	drum_note 5, 4
	drum_note 7, 4
	drum_note 5, 4
	drum_note 5, 4
	drum_note 7, 4
	drum_note 9, 4
	drum_note 7, 4
	drum_note 5, 4
	drum_note 5, 4
	drum_note 7, 4
	drum_note 5, 4
	drum_note 5, 4
	drum_note 7, 4
	drum_note 9, 4
	drum_note 7, 4
	drum_note 5, 4
	drum_note 5, 4
	drum_note 7, 4
	drum_note 5, 4
	drum_note 5, 4
	drum_note 7, 4
	drum_note 9, 4
	drum_note 7, 4
	drum_note 5, 4
	drum_note 5, 4
	drum_note 7, 4
	drum_note 5, 4
	drum_note 5, 4
	drum_note 7, 4
	drum_note 9, 4
	drum_note 7, 4
	drum_note 5, 4
	drum_note 5, 4
	drum_note 7, 4
	drum_note 5, 4
	drum_note 5, 4
	drum_note 7, 4
	drum_note 9, 4
	drum_note 7, 4
	drum_note 5, 4
	drum_note 5, 4
	drum_note 7, 4
	drum_note 5, 4
	drum_note 5, 4
	drum_note 7, 4
	drum_note 9, 4
	drum_note 7, 4
	drum_note 5, 4
	drum_note 5, 4
	drum_note 7, 4
	drum_note 5, 4
	drum_note 5, 4
	drum_note 7, 4
	drum_note 9, 4
	drum_note 7, 4
	drum_note 5, 4
	drum_note 5, 4
	drum_note 7, 4
	drum_note 5, 4
	drum_note 5, 4
	drum_note 7, 4
	drum_note 9, 4
	drum_note 7, 4
	drum_note 5, 4
	drum_note 5, 4
	drum_note 7, 4
	drum_note 5, 4
	drum_note 5, 4
	drum_note 7, 4
	drum_note 9, 4
	drum_note 7, 4
	drum_note 5, 4
	drum_note 5, 4
	drum_note 7, 4
	drum_note 5, 4
	drum_note 5, 4
	drum_note 7, 4
	drum_note 9, 4
	drum_note 7, 4
	drum_note 5, 4
	drum_note 5, 4
	drum_note 7, 4
	drum_note 5, 4
	drum_note 5, 4
	drum_note 7, 4
	drum_note 9, 4
	drum_note 7, 4
	drum_note 5, 4
	drum_note 5, 4
	drum_note 7, 4
	drum_note 5, 4
	drum_note 5, 4
	drum_note 7, 4
	drum_note 9, 4
	drum_note 7, 4
	drum_note 5, 4
	drum_note 5, 4
	drum_note 12, 4
	drum_note 5, 4
	drum_note 5, 4
	drum_note 7, 4
	drum_note 9, 4
	drum_note 7, 4
	drum_note 5, 4
	drum_note 5, 4
	drum_note 12, 4
	drum_note 5, 4
	drum_note 5, 4
	drum_note 7, 4
	drum_note 9, 4
	drum_note 7, 4
	drum_note 5, 4
	drum_note 5, 4
	drum_note 12, 4
	drum_note 5, 4
	drum_note 5, 4
	drum_note 7, 4
	drum_note 9, 4
	drum_note 7, 4
	drum_note 5, 4
	drum_note 5, 4
	drum_note 12, 4
	drum_note 5, 4
	drum_note 5, 4
	drum_note 7, 4
	drum_note 9, 4
	drum_note 7, 4
	drum_note 5, 4
	drum_note 5, 8
	drum_note 5, 4
	drum_note 5, 4
	drum_note 7, 4
	drum_note 9, 4
	drum_note 7, 4
	drum_note 5, 4
	drum_note 5, 8
	drum_note 5, 4
	drum_note 5, 4
	drum_note 7, 4
	drum_note 9, 4
	drum_note 7, 4
	drum_note 5, 4
	drum_note 5, 8
	drum_note 5, 4
	drum_note 5, 4
	drum_note 7, 4
	drum_note 9, 4
	drum_note 7, 4
	drum_note 5, 4
	drum_note 5, 8
	drum_note 5, 4
	drum_note 5, 4
	drum_note 7, 4
	drum_note 9, 4
	drum_note 7, 4
	drum_note 5, 4
	drum_note 5, 8
	drum_note 5, 4
	drum_note 5, 4
	drum_note 7, 4
	drum_note 9, 4
	drum_note 7, 4
	drum_note 5, 4
	drum_note 5, 8
	drum_note 5, 4
	drum_note 5, 4
	drum_note 7, 4
	drum_note 9, 4
	drum_note 7, 4
	drum_note 5, 4
	drum_note 5, 8
	drum_note 5, 4
	drum_note 5, 4
	drum_note 7, 4
	drum_note 9, 4
	drum_note 7, 4
	drum_note 5, 4
	drum_note 5, 8
	drum_note 5, 4
	drum_note 5, 4
	drum_note 7, 4
	drum_note 9, 4
	drum_note 7, 4
	drum_note 5, 4
	drum_note 5, 8
	drum_note 5, 4
	drum_note 5, 4
	drum_note 7, 4
	drum_note 9, 4
	drum_note 7, 4
	drum_note 5, 4
	drum_note 5, 8
	drum_note 5, 4
	drum_note 5, 4
	drum_note 7, 4
	drum_note 9, 4
	drum_note 7, 4
	drum_note 5, 4
	drum_note 5, 8
	drum_note 5, 4
	drum_note 5, 4
	drum_note 7, 4
	drum_note 9, 4
	drum_note 7, 4
	drum_note 5, 4
	drum_note 5, 8
	drum_note 5, 4
	drum_note 5, 4
	drum_note 7, 4
	drum_note 9, 4
	drum_note 7, 4
	drum_note 5, 4
	drum_note 5, 8
	drum_note 5, 4
	drum_note 5, 4
	drum_note 7, 4
	drum_note 9, 4
	drum_note 7, 4
	drum_note 5, 4
	drum_note 5, 8
	drum_note 5, 4
	drum_note 5, 4
	drum_note 7, 4
	drum_note 9, 4
	drum_note 7, 4
	drum_note 5, 4
	drum_note 5, 4
	drum_note 12, 4
	drum_note 5, 4
	drum_note 5, 4
	drum_note 7, 4
	drum_note 9, 4
	drum_note 7, 4
	drum_note 5, 4
	drum_note 5, 4
	drum_note 12, 4
	drum_note 5, 4
	drum_note 5, 4
	drum_note 7, 4
	drum_note 9, 4
	drum_note 7, 4
	drum_note 5, 4
	drum_note 5, 4
	drum_note 12, 4
	drum_note 5, 4
	drum_note 5, 4
	drum_note 7, 4
	drum_note 9, 4
	drum_note 7, 4
	drum_note 5, 4
	drum_note 5, 4
	drum_note 12, 4
	drum_note 5, 4
	drum_note 5, 4
	drum_note 7, 4
	drum_note 9, 4
	drum_note 7, 4
	drum_note 5, 4
	drum_note 5, 4
	drum_note 12, 4
	drum_note 5, 4
	drum_note 5, 4
	drum_note 7, 4
	drum_note 9, 4
	drum_note 7, 4
	drum_note 5, 4
	drum_note 5, 4
	drum_note 12, 4
	drum_note 5, 4
	drum_note 5, 4
	drum_note 7, 4
	drum_note 9, 4
	drum_note 7, 4
	drum_note 5, 4
	drum_note 5, 4
	drum_note 12, 4
	drum_note 5, 4
	drum_note 5, 4
	drum_note 7, 4
	drum_note 9, 4
	drum_note 7, 4
	drum_note 5, 4
	drum_note 5, 4
	drum_note 12, 4
	drum_note 5, 4
	drum_note 5, 4
	drum_note 7, 4
	drum_note 9, 4
	drum_note 7, 4
	drum_note 5, 4
	drum_note 5, 4
	drum_note 12, 4
	drum_note 5, 4
	drum_note 5, 4
	drum_note 7, 4
	drum_note 9, 4
	drum_note 7, 4
	drum_note 5, 4
	drum_note 5, 4
	drum_note 12, 4
	drum_note 5, 4
	drum_note 5, 4
	drum_note 7, 4
	drum_note 9, 4
	drum_note 7, 4
	drum_note 5, 4
	drum_note 5, 4
	drum_note 12, 4
	drum_note 5, 4
	drum_note 5, 4
	drum_note 7, 4
	drum_note 9, 4
	drum_note 7, 4
	drum_note 5, 4
	drum_note 5, 4
	drum_note 12, 4
	drum_note 5, 4
	drum_note 5, 4
	drum_note 7, 4
	drum_note 9, 4
	drum_note 7, 4
	drum_note 5, 4
	drum_note 5, 4
	drum_note 12, 4
	drum_note 5, 4
	drum_note 5, 4
	drum_note 7, 4
	drum_note 9, 4
	drum_note 7, 4
	drum_note 5, 4
	drum_note 5, 4
	drum_note 12, 4
	drum_note 5, 4
	drum_note 5, 4
	drum_note 7, 4
	drum_note 9, 4
	drum_note 7, 4
	drum_note 5, 4
	drum_note 5, 4
	drum_note 12, 4
	drum_note 5, 4
	drum_note 5, 4
	drum_note 7, 4
	drum_note 9, 4
	drum_note 7, 4
	drum_note 5, 4
	drum_note 5, 4
	drum_note 12, 4
	drum_note 5, 4
	drum_note 5, 4
	drum_note 7, 4
	drum_note 9, 4
	drum_note 7, 4
	drum_note 5, 4
	drum_note 5, 4
	drum_note 7, 4
	drum_note 7, 4
	drum_note 11, 4
	drum_note 7, 4
	drum_note 9, 4
	drum_note 7, 4
	drum_note 11, 4
	drum_note 7, 4
	drum_note 7, 4
	drum_note 7, 4
	drum_note 11, 4
	drum_note 7, 4
	drum_note 9, 4
	drum_note 7, 4
	drum_note 11, 4
	drum_note 7, 4
	drum_note 7, 4
	drum_note 7, 4
	drum_note 11, 4
	drum_note 7, 4
	drum_note 9, 4
	drum_note 7, 4
	drum_note 11, 4
	drum_note 7, 4
	drum_note 7, 4
	drum_note 7, 4
	drum_note 11, 4
	drum_note 7, 4
	drum_note 9, 4
	drum_note 7, 4
	drum_note 11, 4
	drum_note 7, 4
	drum_note 7, 4
	drum_note 7, 4
	drum_note 11, 4
	drum_note 7, 4
	drum_note 9, 4
	drum_note 7, 4
	drum_note 11, 4
	drum_note 7, 4
	drum_note 7, 4
	drum_note 7, 4
	drum_note 11, 4
	drum_note 7, 4
	drum_note 9, 4
	drum_note 7, 4
	drum_note 11, 4
	drum_note 7, 4
	drum_note 7, 4
	drum_note 7, 4
	drum_note 11, 4
	drum_note 7, 4
	drum_note 9, 4
	drum_note 7, 4
	drum_note 11, 4
	drum_note 7, 4
	drum_note 7, 4
	drum_note 7, 4
	drum_note 11, 4
	drum_note 7, 4
	drum_note 9, 4
	drum_note 7, 4
	drum_note 11, 4
	drum_note 7, 4
	drum_note 7, 4
	drum_note 7, 4
	drum_note 11, 4
	drum_note 7, 4
	drum_note 9, 4
	drum_note 7, 4
	drum_note 11, 4
	drum_note 7, 4
	drum_note 7, 4
	drum_note 7, 4
	drum_note 11, 4
	drum_note 7, 4
	drum_note 9, 4
	drum_note 7, 4
	drum_note 11, 4
	drum_note 7, 4
	drum_note 7, 4
	drum_note 7, 4
	drum_note 11, 4
	drum_note 7, 4
	drum_note 9, 4
	drum_note 7, 4
	drum_note 11, 4
	drum_note 7, 4
	drum_note 7, 4
	drum_note 7, 4
	drum_note 11, 4
	drum_note 7, 4
	drum_note 9, 4
	drum_note 7, 4
	drum_note 11, 4
	drum_note 7, 4
	drum_note 7, 4
	drum_note 7, 4
	drum_note 11, 4
	drum_note 7, 4
	drum_note 9, 4
	drum_note 7, 4
	drum_note 11, 4
	drum_note 7, 4
	drum_note 7, 4
	drum_note 7, 4
	drum_note 11, 4
	drum_note 7, 4
	drum_note 9, 4
	drum_note 7, 4
	drum_note 11, 4
	drum_note 7, 4
	drum_note 7, 4
	drum_note 7, 4
	drum_note 11, 4
	drum_note 7, 4
	drum_note 9, 4
	drum_note 7, 4
	drum_note 11, 4
	drum_note 7, 4
	drum_note 7, 4
	drum_note 7, 4
	drum_note 11, 4
	drum_note 7, 4
	drum_note 9, 4
	drum_note 7, 4
	drum_note 11, 4
	drum_note 7, 4
	drum_note 12, 4
	drum_note 5, 4
	drum_note 5, 4
	drum_note 7, 4
	drum_note 9, 4
	drum_note 7, 4
	drum_note 5, 4
	drum_note 5, 4
	drum_note 12, 4
	drum_note 5, 4
	drum_note 5, 4
	drum_note 7, 4
	drum_note 9, 4
	drum_note 7, 4
	drum_note 5, 4
	drum_note 5, 4
	drum_note 12, 4
	drum_note 5, 4
	drum_note 5, 4
	drum_note 7, 4
	drum_note 9, 4
	drum_note 7, 4
	drum_note 5, 4
	drum_note 5, 4
	drum_note 12, 4
	drum_note 5, 4
	drum_note 5, 4
	drum_note 7, 4
	drum_note 9, 4
	drum_note 7, 4
	drum_note 5, 4
	drum_note 5, 8
	drum_note 5, 4
	drum_note 5, 4
	drum_note 7, 4
	drum_note 9, 4
	drum_note 7, 4
	drum_note 5, 4
	drum_note 5, 8
	drum_note 5, 4
	drum_note 5, 4
	drum_note 7, 4
	drum_note 9, 4
	drum_note 7, 4
	drum_note 5, 4
	drum_note 5, 8
	drum_note 5, 4
	drum_note 5, 4
	drum_note 7, 4
	drum_note 9, 4
	drum_note 7, 4
	drum_note 5, 4
	drum_note 5, 8
	drum_note 5, 4
	drum_note 5, 4
	drum_note 7, 4
	drum_note 9, 4
	drum_note 7, 4
	drum_note 5, 4
	drum_note 5, 8
	drum_note 5, 4
	drum_note 5, 4
	drum_note 7, 4
	drum_note 9, 4
	drum_note 7, 4
	drum_note 5, 4
	drum_note 5, 8
	drum_note 5, 4
	drum_note 5, 4
	drum_note 7, 4
	drum_note 9, 4
	drum_note 7, 4
	drum_note 5, 4
	drum_note 5, 8
	drum_note 5, 4
	drum_note 5, 4
	drum_note 7, 4
	drum_note 9, 4
	drum_note 7, 4
	drum_note 5, 4
	drum_note 5, 8
	drum_note 5, 4
	drum_note 5, 4
	drum_note 7, 4
	drum_note 9, 4
	drum_note 7, 4
	drum_note 5, 4
	drum_note 5, 8
	drum_note 5, 4
	drum_note 5, 4
	drum_note 7, 4
	drum_note 9, 4
	drum_note 7, 4
	drum_note 5, 4
	drum_note 5, 8
	drum_note 5, 4
	drum_note 5, 4
	drum_note 7, 4
	drum_note 9, 4
	drum_note 7, 4
	drum_note 5, 4
	drum_note 5, 8
	drum_note 5, 4
	drum_note 5, 4
	drum_note 7, 4
	drum_note 9, 4
	drum_note 7, 4
	drum_note 5, 4
	drum_note 5, 8
	drum_note 5, 4
	drum_note 5, 4
	drum_note 7, 4
	drum_note 9, 4
	drum_note 7, 4
	drum_note 5, 4
	drum_note 5, 8
	drum_note 5, 4
	drum_note 5, 4
	drum_note 7, 4
	drum_note 9, 4
	drum_note 7, 4
	drum_note 5, 4
	drum_note 5, 8
	drum_note 5, 4
	drum_note 5, 4
	drum_note 7, 4
	drum_note 9, 4
	drum_note 7, 4
	drum_note 5, 4
	drum_note 5, 4
	drum_note 12, 4
	drum_note 5, 4
	drum_note 5, 4
	drum_note 7, 4
	drum_note 9, 4
	drum_note 7, 4
	drum_note 5, 4
	drum_note 5, 4
	drum_note 12, 4
	drum_note 5, 4
	drum_note 5, 4
	drum_note 7, 4
	drum_note 9, 4
	drum_note 7, 4
	drum_note 5, 4
	drum_note 5, 4
	drum_note 12, 4
	drum_note 5, 4
	drum_note 5, 4
	drum_note 7, 4
	drum_note 9, 4
	drum_note 7, 4
	drum_note 5, 4
	drum_note 5, 4
	drum_note 12, 4
	drum_note 5, 4
	drum_note 5, 4
	drum_note 7, 4
	drum_note 9, 4
	drum_note 7, 4
	drum_note 5, 4
	drum_note 5, 4
	drum_note 12, 4
	drum_note 5, 4
	drum_note 5, 4
	drum_note 7, 4
	drum_note 9, 4
	drum_note 7, 4
	drum_note 5, 4
	drum_note 5, 4
	drum_note 12, 4
	drum_note 5, 4
	drum_note 5, 4
	drum_note 7, 4
	drum_note 9, 4
	drum_note 7, 4
	drum_note 5, 4
	drum_note 5, 4
	drum_note 12, 4
	drum_note 5, 4
	drum_note 5, 4
	drum_note 7, 4
	drum_note 9, 4
	drum_note 7, 4
	drum_note 5, 4
	drum_note 5, 4
	drum_note 12, 4
	drum_note 5, 4
	drum_note 5, 4
	drum_note 7, 4
	drum_note 9, 4
	drum_note 7, 4
	drum_note 5, 4
	drum_note 5, 4
	drum_note 12, 4
	drum_note 5, 4
	drum_note 5, 4
	drum_note 7, 4
	drum_note 9, 4
	drum_note 7, 4
	drum_note 5, 4
	drum_note 5, 4
	drum_note 12, 4
	drum_note 5, 4
	drum_note 5, 4
	drum_note 7, 4
	drum_note 9, 4
	drum_note 7, 4
	drum_note 5, 4
	drum_note 5, 4
	drum_note 12, 4
	drum_note 5, 4
	drum_note 5, 4
	drum_note 7, 4
	drum_note 9, 4
	drum_note 7, 4
	drum_note 5, 4
	drum_note 5, 4
	drum_note 12, 4
	drum_note 5, 4
	drum_note 5, 4
	drum_note 7, 4
	drum_note 9, 4
	drum_note 7, 4
	drum_note 5, 4
	drum_note 5, 4
	drum_note 12, 4
	drum_note 5, 4
	drum_note 5, 4
	drum_note 7, 4
	drum_note 9, 4
	drum_note 7, 4
	drum_note 5, 4
	drum_note 5, 4
	drum_note 12, 4
	drum_note 5, 4
	drum_note 5, 4
	drum_note 7, 4
	drum_note 9, 4
	drum_note 7, 4
	drum_note 5, 4
	drum_note 5, 4
	drum_note 12, 4
	drum_note 5, 4
	drum_note 5, 4
	drum_note 7, 4
	drum_note 9, 4
	drum_note 7, 4
	drum_note 5, 4
	drum_note 5, 4
	drum_note 12, 4
	drum_note 5, 4
	drum_note 5, 4
	drum_note 7, 4
	drum_note 9, 4
	drum_note 7, 4
	drum_note 5, 4
	drum_note 5, 4
	drum_note 7, 4
	drum_note 7, 4
	drum_note 11, 4
	drum_note 7, 4
	drum_note 9, 4
	drum_note 7, 4
	drum_note 11, 4
	drum_note 7, 4
	drum_note 7, 4
	drum_note 7, 4
	drum_note 11, 4
	drum_note 7, 4
	drum_note 9, 4
	drum_note 7, 4
	drum_note 11, 4
	drum_note 7, 4
	drum_note 7, 4
	drum_note 7, 4
	drum_note 11, 4
	drum_note 7, 4
	drum_note 9, 4
	drum_note 7, 4
	drum_note 11, 4
	drum_note 7, 4
	drum_note 7, 4
	drum_note 7, 4
	drum_note 11, 4
	drum_note 7, 4
	drum_note 9, 4
	drum_note 7, 4
	drum_note 11, 4
	drum_note 7, 4
	drum_note 7, 4
	drum_note 7, 4
	drum_note 11, 4
	drum_note 7, 4
	drum_note 9, 4
	drum_note 7, 4
	drum_note 11, 4
	drum_note 7, 4
	drum_note 7, 4
	drum_note 7, 4
	drum_note 11, 4
	drum_note 7, 4
	drum_note 9, 4
	drum_note 7, 4
	drum_note 11, 4
	drum_note 7, 4
	drum_note 7, 4
	drum_note 7, 4
	drum_note 11, 4
	drum_note 7, 4
	drum_note 9, 4
	drum_note 7, 4
	drum_note 11, 4
	drum_note 7, 4
	drum_note 7, 4
	drum_note 7, 4
	drum_note 11, 4
	drum_note 7, 4
	drum_note 9, 4
	drum_note 7, 4
	drum_note 11, 4
	drum_note 7, 4
	drum_note 7, 4
	drum_note 7, 4
	drum_note 11, 4
	drum_note 7, 4
	drum_note 9, 4
	drum_note 7, 4
	drum_note 11, 4
	drum_note 7, 4
	drum_note 7, 4
	drum_note 7, 4
	drum_note 11, 4
	drum_note 7, 4
	drum_note 9, 4
	drum_note 7, 4
	drum_note 11, 4
	drum_note 7, 4
	drum_note 7, 4
	drum_note 7, 4
	drum_note 11, 4
	drum_note 7, 4
	drum_note 9, 4
	drum_note 7, 4
	drum_note 11, 4
	drum_note 7, 4
	drum_note 7, 4
	drum_note 7, 4
	drum_note 11, 4
	drum_note 7, 4
	drum_note 9, 4
	drum_note 7, 4
	drum_note 11, 4
	drum_note 7, 4
	drum_note 7, 4
	drum_note 7, 4
	drum_note 11, 4
	drum_note 7, 4
	drum_note 9, 4
	drum_note 7, 4
	drum_note 11, 4
	drum_note 7, 4
	drum_note 7, 4
	drum_note 7, 4
	drum_note 11, 4
	drum_note 7, 4
	drum_note 9, 4
	drum_note 7, 4
	drum_note 11, 4
	drum_note 7, 4
	drum_note 7, 4
	drum_note 7, 4
	drum_note 11, 4
	drum_note 7, 4
	drum_note 9, 4
	drum_note 7, 4
	drum_note 11, 4
	drum_note 7, 4
	drum_note 7, 4
	drum_note 7, 4
	drum_note 11, 4
	drum_note 7, 4
	drum_note 9, 4
	drum_note 7, 4
	drum_note 11, 4
	drum_note 7, 4
	drum_note 12, 4
	drum_note 5, 4
	drum_note 5, 4
	drum_note 7, 4
	drum_note 9, 4
	drum_note 7, 4
	drum_note 5, 4
	drum_note 5, 4
	drum_note 12, 4
	drum_note 5, 4
	drum_note 5, 4
	drum_note 7, 4
	drum_note 9, 4
	drum_note 7, 4
	drum_note 5, 4
	drum_note 5, 4
	drum_note 12, 4
	drum_note 5, 4
	drum_note 5, 4
	drum_note 7, 4
	drum_note 9, 4
	drum_note 7, 4
	drum_note 5, 4
	drum_note 5, 4
	drum_note 12, 4
	drum_note 5, 4
	drum_note 5, 4
	drum_note 7, 4
	drum_note 9, 4
	drum_note 7, 4
	drum_note 5, 4
	drum_note 5, 4
	drum_speed 6
	sound_jump .mainloop
