Music_Waterfall:
	channel_count 4
	channel 1, Music_Waterfall_Ch1
	channel 2, Music_Waterfall_Ch2
	channel 3, Music_Waterfall_Ch3
	channel 4, Music_Waterfall_Ch4

Music_Waterfall_Ch1:
	volume 7, 7
	duty_cycle 2
	note_type 6, 10, 7
	tempo 136
.mainloop:
	rest 16
	rest 16
	rest 16
	rest 16
	rest 16
	rest 16
	rest 16
	rest 16
	rest 16
	rest 16
	rest 16
	rest 16
	rest 16
	rest 16
	rest 16
	rest 16
	octave 1
	duty_cycle 1
	volume_envelope 6, -1
	note C_, 16
	note C_, 16
	note C_, 16
	note C_, 16
	note B_, 16
	note B_, 16
	note B_, 16
	note B_, 16
	note E_, 16
	note E_, 16
	note E_, 16
	note E_, 16
	rest 16
	rest 16
	rest 16
	rest 16
	note E_, 16
	note E_, 16
	note E_, 16
	note A_, 16
	note A_, 16
	note F#, 16
	note G_, 16
	note G_, 16
	note G_, 16
	note C_, 16
	note C_, 16
	note B_, 16
	note E_, 16
	note E_, 16
	note E_, 16
	note B_, 16
	note B_, 16
	note B_, 16
	note A_, 16
	note A_, 16
	note A_, 16
	note B_, 16
	note B_, 16
	note D_, 16
	note E_, 16
	note E_, 16
	note E_, 16
	note A_, 16
	note A_, 16
	note F#, 16
	note G_, 16
	note G_, 16
	note G_, 16
	note C_, 16
	note C_, 16
	note B_, 16
	note E_, 16
	note E_, 16
	note E_, 16
	note B_, 16
	note B_, 16
	note B_, 16
	note A_, 16
	note A_, 16
	note A_, 16
	note B_, 16
	rest 8
	duty_cycle 3
	transpose 0, 0
	octave 4
	note F#, 8
	note G_, 8
	note F#, 8
	note A_, 8
	rest 8
	note A_, 16
	rest 8
	note A_, 8
	note F#, 8
	rest 8
	note F#, 8
	note G_, 8
	note F#, 8
	note G_, 8
	note F#, 16
	note F#, 8
	note A_, 16
	note A_, 8
	note E_, 16
	note E_, 8
	note F#, 8
	note G_, 8
	note F#, 8
	note A_, 8
	rest 8
	note A_, 16
	rest 8
	note A_, 8
	note F#, 8
	rest 8
	note F#, 8
	note G_, 8
	note F#, 8
	note G_, 8
	note F#, 16
	note F#, 8
	note A_, 16
	note A_, 8
	note E_, 16
	note E_, 8
	note F#, 8
	note G_, 8
	note F#, 8
	note A_, 8
	rest 8
	note A_, 16
	rest 8
	note A_, 8
	note F#, 8
	rest 8
	note F#, 8
	note G_, 8
	note F#, 8
	note G_, 8
	note F#, 16
	note F#, 8
	note A_, 16
	note A_, 8
	note E_, 16
	note E_, 8
	note F#, 8
	note G_, 8
	note F#, 8
	note A_, 8
	rest 8
	note A_, 16
	rest 8
	note A_, 8
	note F#, 8
	rest 8
	note F#, 8
	note G_, 8
	note F#, 8
	note G_, 8
	note F#, 16
	note F#, 8
	note A_, 16
	note A_, 8
	note E_, 16
	note E_, 8
	note E_, 8
	note F_, 8
	note G_, 8
	note A_, 16
	note A_, 16
	note A_, 16
	note A_, 16
	octave 3
	note_type 6, 12, 7
	rest 16
	rest 16
	rest 16
	rest 16
	rest 16
	rest 16
	rest 16
	rest 16
	rest 16
	rest 16
	rest 16
	rest 11
	note_type 1, 12, 7
	rest 5
	note_type 6, 12, 7
	rest 2
	note_type 1, 12, 7
	rest 11
	note_type 6, 12, 7
	sound_jump .mainloop

Music_Waterfall_Ch2:
	duty_cycle 1
	note_type 6, 10, 7
.mainloop:
	rest 16
	rest 16
	rest 16
	rest 16
	rest 16
	rest 16
	rest 16
	rest 16
	rest 16
	rest 16
	rest 16
	rest 16
	rest 16
	rest 16
	rest 16
	rest 16
	rest 16
	rest 16
	rest 16
	rest 16
	rest 16
	rest 16
	rest 16
	rest 16
	rest 16
	rest 16
	rest 16
	rest 16
	rest 16
	rest 16
	rest 16
	rest 16
	octave 2
	duty_cycle 0
	volume_envelope 13, -1
	note B_, 16
	octave 3
	note E_, 16
	note G_, 16
	note E_, 16
	note F#, 8
	note G_, 8
	note A_, 8
	note F#, 8
	note G_, 16
	note G_, 8
	note F#, 16
	note E_, 4
	note D_, 4
	note C_, 16
	note F#, 8
	note G_, 8
	note A_, 8
	note B_, 8
	note G_, 16
	note F#, 16
	octave 2
	note B_, 16
	octave 3
	note E_, 16
	note D_, 16
	note C_, 16
	note D_, 8
	note C_, 8
	octave 2
	note B_, 8
	note A_, 16
	octave 3
	note E_, 8
	octave 2
	note B_, 16
	note B_, 8
	note F#, 8
	note A_, 8
	octave 3
	note C_, 8
	octave 2
	note B_, 16
	octave 3
	note E_, 16
	note G_, 16
	note E_, 16
	note F#, 8
	note G_, 8
	note A_, 8
	note F#, 8
	note G_, 16
	note G_, 8
	note F#, 16
	note E_, 4
	note D_, 4
	note C_, 16
	note F#, 8
	note G_, 8
	note A_, 8
	note B_, 8
	note G_, 16
	note F#, 16
	octave 2
	note B_, 16
	octave 3
	note E_, 16
	note D_, 16
	note C_, 16
	note D_, 8
	note C_, 8
	octave 2
	note B_, 8
	note A_, 16
	octave 3
	note E_, 9
	octave 2
	note B_, 16
	note B_, 8
	rest 16
	rest 8
	octave 1
	note E_, 16
	note B_, 16
	note G_, 16
	note A_, 16
	note D_, 16
	note A_, 16
	note C_, 16
	note E_, 16
	note A_, 16
	note E_, 16
	note A_, 16
	note B_, 16
	note E_, 16
	note B_, 16
	note G_, 16
	note A_, 16
	note D_, 16
	note A_, 16
	note C_, 16
	note E_, 16
	note A_, 16
	note E_, 16
	note A_, 16
	note B_, 16
	note E_, 16
	note B_, 16
	note G_, 16
	note A_, 16
	note D_, 16
	note A_, 16
	note C_, 16
	note E_, 16
	note A_, 16
	note E_, 16
	note A_, 16
	note B_, 16
	note E_, 16
	note B_, 16
	note G_, 16
	note A_, 16
	note D_, 16
	note A_, 16
	note C_, 16
	note E_, 16
	note A_, 16
	note E_, 16
	note A_, 16
	note D_, 16
	note F_, 16
	note F_, 16
	note F_, 16
	rest 16
	octave 4
	note C_, 8
	note D_, 8
	note E_, 16
	note D_, 16
	note C_, 16
	octave 3
	note B_, 16
	note B_, 16
	note B_, 16
	note B_, 16
	note_type 6, 12, 7
	rest 16
	rest 16
	rest 16
	rest 10
	note_type 1, 12, 7
	rest 5
	note_type 6, 12, 7
	rest 2
	note_type 1, 12, 7
	rest 11
	note_type 6, 12, 7
	sound_jump .mainloop

Music_Waterfall_Ch3:
	note_type 6, 1, 0
.mainloop:
	octave 4
	volume_envelope 2, 2
	vibrato 0, 2, 1
	note E_, 3
	rest 5
	note B_, 3
	rest 5
	octave 5
	note F#, 3
	rest 5
	note D_, 3
	rest 5
	note E_, 3
	rest 5
	octave 4
	note B_, 3
	rest 5
	note G_, 3
	rest 5
	note B_, 3
	rest 5
	note E_, 3
	rest 5
	note B_, 3
	rest 5
	octave 5
	note F#, 3
	rest 5
	note G_, 3
	rest 5
	note A_, 3
	rest 5
	note G_, 3
	rest 5
	note F#, 3
	rest 5
	note D_, 3
	rest 5
	octave 4
	note E_, 3
	rest 5
	note B_, 3
	rest 5
	octave 5
	note F#, 3
	rest 5
	note D_, 3
	rest 5
	note E_, 3
	rest 5
	octave 4
	note B_, 3
	rest 5
	note G_, 3
	rest 5
	note B_, 3
	rest 5
	note E_, 3
	rest 5
	note B_, 3
	rest 5
	octave 5
	note F#, 3
	rest 5
	note G_, 3
	rest 5
	note A_, 3
	rest 5
	note G_, 3
	rest 5
	note F#, 3
	rest 5
	note D_, 3
	rest 5
	octave 4
	note E_, 3
	rest 5
	note B_, 3
	rest 5
	octave 5
	note F#, 3
	rest 5
	note D_, 3
	rest 5
	note E_, 3
	rest 5
	octave 4
	note B_, 3
	rest 5
	note G_, 3
	rest 5
	note B_, 3
	rest 5
	note E_, 3
	rest 5
	note B_, 3
	rest 5
	octave 5
	note F#, 3
	rest 5
	note G_, 3
	rest 5
	note A_, 3
	rest 5
	note G_, 3
	rest 5
	note F#, 3
	rest 5
	note D_, 3
	rest 5
	octave 4
	note E_, 3
	rest 5
	note B_, 3
	rest 5
	octave 5
	note F#, 3
	rest 5
	note D_, 3
	rest 5
	note E_, 3
	rest 5
	octave 4
	note B_, 3
	rest 5
	note G_, 3
	rest 5
	note B_, 3
	rest 5
	note E_, 3
	rest 5
	note B_, 3
	rest 5
	octave 5
	note F#, 3
	rest 5
	note G_, 3
	rest 5
	note A_, 3
	rest 5
	note G_, 3
	rest 5
	note F#, 3
	rest 5
	note D_, 3
	rest 5
	note E_, 3
	rest 5
	note B_, 3
	rest 5
	octave 6
	note E_, 3
	rest 5
	note D_, 3
	rest 5
	note E_, 3
	rest 5
	octave 5
	note B_, 3
	rest 5
	note A_, 3
	rest 5
	note B_, 3
	rest 5
	note F#, 3
	rest 5
	note B_, 3
	rest 5
	octave 6
	note C_, 3
	rest 5
	octave 5
	note F#, 3
	rest 5
	note G_, 3
	rest 5
	note B_, 3
	rest 5
	octave 6
	note E_, 3
	rest 5
	note D_, 3
	rest 5
	note E_, 3
	rest 5
	octave 5
	note B_, 3
	rest 5
	note A_, 3
	rest 5
	note B_, 3
	rest 5
	note F#, 3
	rest 5
	note B_, 3
	rest 5
	octave 6
	note D_, 3
	rest 5
	note F#, 3
	rest 5
	octave 5
	note A_, 3
	rest 5
	note B_, 3
	rest 5
	octave 6
	note D_, 3
	rest 5
	note F#, 3
	rest 5
	note E_, 3
	rest 5
	octave 5
	note B_, 3
	rest 5
	note A_, 3
	rest 5
	note B_, 3
	rest 5
	note F#, 3
	rest 5
	note B_, 3
	rest 5
	note A_, 3
	rest 5
	note B_, 3
	rest 5
	note F#, 3
	rest 5
	note A_, 3
	rest 5
	octave 6
	note D_, 3
	rest 5
	note E_, 3
	rest 5
	note F#, 3
	rest 5
	note D_, 3
	rest 5
	note E_, 3
	rest 5
	octave 5
	note B_, 3
	rest 5
	note A_, 3
	rest 5
	octave 6
	note D_, 3
	rest 5
	octave 5
	note F#, 3
	rest 5
	note G_, 3
	rest 5
	note E_, 3
	rest 5
	note B_, 3
	rest 5
	octave 6
	note E_, 3
	rest 5
	note D_, 3
	rest 5
	note E_, 3
	rest 5
	octave 5
	note B_, 3
	rest 5
	note A_, 3
	rest 5
	note B_, 3
	rest 5
	note F#, 3
	rest 5
	note B_, 3
	rest 5
	octave 6
	note C_, 3
	rest 5
	octave 5
	note F#, 3
	rest 5
	note G_, 3
	rest 5
	note B_, 3
	rest 5
	octave 6
	note E_, 3
	rest 5
	note D_, 3
	rest 5
	note E_, 3
	rest 5
	octave 5
	note B_, 3
	rest 5
	note A_, 3
	rest 5
	note B_, 3
	rest 5
	note F#, 3
	rest 5
	note B_, 3
	rest 5
	octave 6
	note D_, 3
	rest 5
	note F#, 3
	rest 5
	octave 5
	note A_, 3
	rest 5
	note B_, 3
	rest 5
	octave 6
	note D_, 3
	rest 5
	note F#, 3
	rest 5
	note E_, 3
	rest 5
	octave 5
	note B_, 3
	rest 5
	note A_, 3
	rest 5
	note B_, 3
	rest 5
	note F#, 3
	rest 5
	note B_, 3
	rest 5
	note A_, 3
	rest 5
	note B_, 3
	rest 5
	note F#, 3
	rest 5
	note A_, 3
	rest 5
	octave 6
	note D_, 3
	rest 5
	note E_, 3
	rest 5
	note F#, 3
	rest 5
	note D_, 3
	rest 5
	note E_, 3
	rest 5
	octave 5
	note B_, 3
	rest 5
	note A_, 3
	rest 5
	octave 6
	note D_, 3
	rest 5
	octave 5
	note F#, 3
	rest 5
	note G_, 3
	rest 5
	note E_, 3
	rest 5
	note B_, 3
	rest 5
	note A_, 3
	rest 5
	note B_, 3
	rest 5
	note G_, 3
	rest 5
	note B_, 3
	rest 5
	note E_, 3
	rest 5
	note B_, 3
	rest 5
	note A_, 3
	rest 5
	note B_, 3
	rest 5
	octave 6
	note D_, 3
	rest 5
	octave 5
	note B_, 3
	rest 5
	note F#, 3
	rest 5
	note B_, 3
	rest 5
	note A_, 3
	rest 5
	note B_, 3
	rest 5
	note G_, 3
	rest 5
	note B_, 3
	rest 5
	note E_, 3
	rest 5
	note B_, 3
	rest 5
	note A_, 3
	rest 5
	note B_, 3
	rest 5
	octave 6
	note D_, 3
	rest 5
	octave 5
	note B_, 3
	rest 5
	note E_, 3
	rest 5
	note B_, 3
	rest 5
	note A_, 3
	rest 5
	note B_, 3
	rest 5
	note G_, 3
	rest 5
	note B_, 3
	rest 5
	note E_, 3
	rest 5
	note B_, 3
	rest 5
	note A_, 3
	rest 5
	note B_, 3
	rest 5
	octave 6
	note D_, 3
	rest 5
	octave 5
	note B_, 3
	rest 5
	note F#, 3
	rest 5
	note B_, 3
	rest 5
	note A_, 3
	rest 5
	note B_, 3
	rest 5
	note G_, 3
	rest 5
	note B_, 3
	rest 5
	note E_, 3
	rest 5
	note B_, 3
	rest 5
	note A_, 3
	rest 5
	note B_, 3
	rest 5
	octave 6
	note D_, 3
	rest 5
	octave 5
	note B_, 3
	rest 5
	note E_, 3
	rest 5
	note B_, 3
	rest 5
	note A_, 3
	rest 5
	note B_, 3
	rest 5
	note G_, 3
	rest 5
	note B_, 3
	rest 5
	note E_, 3
	rest 5
	note B_, 3
	rest 5
	note A_, 3
	rest 5
	note B_, 3
	rest 5
	octave 6
	note D_, 3
	rest 5
	octave 5
	note B_, 3
	rest 5
	note F#, 3
	rest 5
	note B_, 3
	rest 5
	note A_, 3
	rest 5
	note B_, 3
	rest 5
	note G_, 3
	rest 5
	note B_, 3
	rest 5
	note E_, 3
	rest 5
	note B_, 3
	rest 5
	note A_, 3
	rest 5
	note B_, 3
	rest 5
	octave 6
	note D_, 3
	rest 5
	octave 5
	note B_, 3
	rest 5
	note E_, 3
	rest 5
	note B_, 3
	rest 5
	note A_, 3
	rest 5
	note B_, 3
	rest 5
	note G_, 3
	rest 5
	note B_, 3
	rest 5
	note E_, 3
	rest 5
	note B_, 3
	rest 5
	note A_, 3
	rest 5
	note B_, 3
	rest 5
	octave 6
	note D_, 3
	rest 5
	octave 5
	note B_, 3
	rest 5
	note F#, 3
	rest 5
	note B_, 3
	rest 5
	note A_, 3
	rest 5
	note B_, 3
	rest 5
	note G_, 3
	rest 5
	note B_, 3
	rest 5
	note E_, 3
	rest 5
	note B_, 3
	rest 5
	note E_, 3
	rest 16
	rest 16
	rest 16
	rest 16
	rest 16
	rest 13
	note C_, 3
	rest 5
	note D_, 3
	rest 5
	note E_, 3
	rest 13
	note D_, 3
	rest 13
	note C_, 3
	rest 13
	octave 4
	note E_, 3
	rest 5
	note B_, 3
	rest 5
	octave 5
	note F#, 3
	rest 5
	note D_, 3
	rest 5
	note E_, 3
	rest 5
	octave 4
	note B_, 3
	rest 5
	note G_, 3
	rest 5
	note B_, 3
	rest 5
	note E_, 3
	rest 5
	note B_, 3
	rest 5
	octave 5
	note F#, 3
	rest 5
	note G_, 3
	rest 5
	note A_, 3
	rest 5
	note G_, 3
	rest 5
	note F#, 3
	rest 5
	note D_, 3
	note_type 1, 1, 0
	rest 5
	note_type 6, 1, 0
	rest 2
	note_type 1, 1, 0
	rest 11
	note_type 6, 1, 0
	sound_jump .mainloop

Music_Waterfall_Ch4:
	toggle_noise 1
	drum_speed 6
.mainloop:
	rest 16
	rest 16
	rest 16
	rest 16
	rest 16
	rest 16
	rest 16
	rest 16
	rest 16
	rest 16
	rest 16
	rest 16
	rest 16
	rest 16
	rest 16
	rest 16
	rest 16
	rest 16
	rest 16
	rest 16
	rest 16
	rest 16
	rest 16
	rest 16
	rest 16
	rest 16
	rest 16
	rest 16
	rest 16
	rest 16
	rest 16
	rest 16
	rest 16
	rest 16
	rest 16
	rest 16
	rest 16
	rest 16
	rest 16
	rest 16
	rest 16
	rest 16
	rest 16
	rest 16
	rest 16
	rest 16
	rest 16
	rest 16
	rest 16
	rest 16
	rest 16
	rest 16
	rest 16
	rest 16
	rest 16
	rest 16
	rest 16
	rest 16
	rest 16
	rest 16
	rest 16
	rest 16
	rest 16
	rest 16
	rest 16
	rest 16
	rest 16
	rest 16
	rest 16
	rest 16
	rest 16
	rest 16
	rest 16
	rest 16
	rest 16
	rest 16
	rest 16
	rest 16
	rest 16
	rest 16
	drum_note 5, 8
	drum_note 5, 8
	drum_note 5, 8
	drum_note 5, 8
	rest 16
	drum_note 5, 8
	drum_note 5, 8
	drum_note 5, 8
	drum_note 5, 8
	rest 16
	drum_note 5, 8
	drum_note 5, 8
	drum_note 5, 8
	drum_note 5, 8
	rest 16
	drum_note 5, 8
	drum_note 5, 8
	drum_note 5, 8
	drum_note 5, 8
	rest 16
	drum_note 5, 8
	drum_note 5, 8
	drum_note 5, 8
	drum_note 5, 8
	rest 16
	drum_note 5, 8
	drum_note 5, 8
	drum_note 5, 8
	drum_note 5, 8
	rest 16
	drum_note 5, 8
	drum_note 5, 8
	drum_note 5, 8
	drum_note 5, 8
	rest 16
	drum_note 5, 8
	drum_note 5, 8
	drum_note 5, 8
	drum_note 5, 8
	rest 16
	drum_note 5, 8
	drum_note 5, 8
	drum_note 5, 8
	drum_note 5, 8
	rest 16
	drum_note 5, 8
	drum_note 5, 8
	drum_note 5, 8
	drum_note 5, 8
	rest 16
	drum_note 5, 8
	drum_note 5, 8
	drum_note 5, 8
	drum_note 5, 8
	rest 16
	drum_note 5, 8
	drum_note 5, 8
	drum_note 5, 8
	drum_note 5, 8
	rest 16
	drum_note 5, 8
	drum_note 5, 8
	drum_note 5, 8
	drum_note 5, 8
	rest 16
	drum_note 5, 8
	drum_note 5, 8
	drum_note 5, 8
	drum_note 5, 8
	rest 16
	drum_note 5, 8
	drum_note 5, 8
	drum_note 5, 8
	drum_note 5, 8
	rest 16
	drum_note 5, 8
	drum_note 5, 8
	drum_note 5, 8
	drum_note 5, 8
	drum_speed 6
	rest 16
	rest 16
	rest 16
	rest 16
	rest 16
	rest 16
	rest 16
	rest 16
	rest 16
	rest 16
	rest 16
	rest 16
	rest 16
	rest 16
	rest 16
	rest 16
	rest 11
	drum_speed 1
	rest 5
	drum_speed 6
	rest 2
	drum_speed 1
	rest 11
	drum_speed 6
	sound_jump .mainloop
