Music_Carpet:
	channel_count 4
	channel 1, Music_Carpet_Ch1
	channel 2, Music_Carpet_Ch2
	channel 3, Music_Carpet_Ch3
	channel 4, Music_Carpet_Ch4

Music_Carpet_Ch1:
	volume 7, 7
	duty_cycle 2
	note_type 6, 10, 7
	tempo 136
.mainloop:
	rest 8
	octave 4
	volume_envelope 9, 2
	note G_, 3
	rest 16
	rest 13
	note G_, 3
	rest 16
	rest 13
	note G_, 3
	rest 5
	note G_, 3
	rest 16
	rest 5
	note G_, 3
	rest 13
	note G_, 3
	rest 13
	note G_, 3
	rest 16
	rest 13
	note G_, 3
	rest 16
	rest 13
	note G_, 3
	rest 5
	note G_, 3
	rest 16
	rest 5
	note G_, 3
	rest 13
	note G_, 3
	rest 13
	note G_, 3
	rest 16
	rest 13
	note G_, 3
	rest 16
	rest 13
	note G_, 3
	rest 5
	note G_, 3
	rest 16
	rest 5
	note G_, 3
	rest 13
	note G_, 3
	rest 13
	note G_, 3
	rest 13
	duty_cycle 3
	volume_envelope 9, 7
	note E_, 5
	note F_, 3
	note G_, 3
	rest 5
	note G_, 3
	rest 2
	note G_, 6
	rest 5
	note A_, 5
	note G_, 6
	rest 10
	octave 5
	note C_, 3
	rest 5
	octave 4
	note B_, 6
	rest 2
	note A_, 3
	note G_, 3
	rest 5
	note F_, 5
	note E_, 6
	rest 5
	note C_, 5
	rest 11
	duty_cycle 2
	volume_envelope 9, 2
	note G_, 3
	rest 16
	rest 13
	note G_, 3
	rest 16
	rest 13
	note G_, 3
	rest 5
	note G_, 3
	rest 16
	rest 5
	note G_, 3
	rest 13
	note G_, 3
	rest 13
	note G_, 3
	rest 13
	duty_cycle 3
	volume_envelope 9, 7
	note E_, 5
	note F_, 3
	note G_, 3
	rest 5
	note G_, 3
	rest 2
	note G_, 6
	rest 5
	note A_, 5
	note G_, 6
	rest 10
	octave 5
	note C_, 3
	rest 5
	octave 4
	note B_, 6
	rest 2
	note A_, 3
	note G_, 3
	rest 5
	note F_, 5
	note E_, 6
	rest 5
	note C_, 5
	rest 11
	duty_cycle 2
	volume_envelope 9, 2
	note E_, 3
	rest 16
	rest 13
	note G_, 3
	rest 16
	rest 13
	note D_, 3
	rest 5
	note D_, 3
	rest 16
	rest 5
	note E_, 3
	rest 13
	note E_, 3
	rest 13
	note E_, 3
	rest 16
	rest 13
	note G_, 3
	rest 16
	rest 13
	note D_, 3
	rest 5
	note D_, 3
	rest 16
	rest 5
	note E_, 3
	rest 13
	note E_, 3
	rest 10
	sound_jump .mainloop

Music_Carpet_Ch2:
	note_type 6, 9, 7
	duty_cycle 1
.mainloop:
    duty_cycle 1
	volume_envelope 9, 2
	rest 16
	rest 16
	rest 16
	rest 16
	rest 16
	rest 16
	rest 16
	rest 16
	rest 16
	rest 16
	rest 16
	rest 16
	rest 16
	rest 16
	rest 16
	rest 16
	octave 5
	note E_, 3
	rest 2
	note F_, 3
	rest 5
	note G_, 3
	rest 5
	note F_, 3
	note E_, 3
	rest 2
	note C_, 3
	octave 4
	note A#, 3
	rest 16
	rest 5
	note G_, 3
	rest 5
	note A#, 3
	rest 2
	octave 5
	note C_, 3
	rest 16
	note C_, 3
	rest 5
	note E_, 3
	rest 2
	note F_, 3
	rest 8
	note E_, 3
	rest 2
	note C_, 3
	rest 8
	octave 4
	note A_, 3
	rest 2
	octave 5
	note C_, 3
	rest 16
	note E_, 3
	rest 2
	note F_, 3
	note G_, 3
	rest 5
	note G_, 3
	rest 2
	note G_, 3
	rest 8
	note A_, 3
	rest 2
	note G_, 3
	rest 13
	octave 6
	note C_, 3
	rest 5
	octave 5
	note B_, 3
	rest 5
	note A_, 3
	note G_, 3
	rest 5
	note F_, 3
	rest 2
	note E_, 3
	rest 8
	note C_, 3
	rest 5
	note E_, 3
	rest 2
	note F_, 3
	rest 5
	note G_, 3
	rest 5
	note F_, 3
	note E_, 3
	rest 2
	note C_, 3
	octave 4
	note A#, 3
	rest 16
	rest 5
	note G_, 3
	rest 5
	note A#, 3
	rest 2
	octave 5
	note C_, 3
	rest 16
	note C_, 3
	rest 5
	note E_, 3
	rest 2
	note F_, 3
	rest 8
	note E_, 3
	rest 2
	note C_, 3
	rest 8
	octave 4
	note A_, 3
	rest 2
	octave 5
	note C_, 3
	rest 16
	note E_, 3
	rest 2
	note F_, 3
	note G_, 3
	rest 5
	note G_, 3
	rest 2
	note G_, 3
	rest 8
	note A_, 3
	rest 2
	note G_, 3
	rest 13
	octave 6
	note C_, 3
	rest 5
	octave 5
	note B_, 3
	rest 5
	note A_, 3
	note G_, 3
	rest 5
	note F_, 3
	rest 2
	note E_, 3
	rest 8
	note C_, 3
	rest 16
	rest 2
	duty_cycle 0
	volume_envelope 9, 5
	note E_, 3
	note E_, 3
	note E_, 2
	note C_, 3
	note C_, 3
	note C_, 2
	note C_, 3
	note G_, 3
	note G_, 2
	note G_, 3
	rest 16
	note A_, 3
	note A_, 2
	note A_, 3
	note D_, 3
	note D_, 2
	note D_, 3
	rest 16
	note C_, 3
	note C_, 2
	note C_, 3
	note E_, 3
	note E_, 2
	note E_, 3
	rest 4
	note D_, 3
	note D_, 2
	note D_, 3
	rest 4
	note C_, 3
	note C_, 2
	note C_, 3
	note C_, 3
	note C_, 2
	note C_, 3
	rest 16
	rest 8
	note E_, 3
	note E_, 2
	note E_, 3
	rest 4
	note D_, 3
	note D_, 2
	note D_, 3
	rest 4
	note C_, 3
	note C_, 2
	note C_, 3
	note C_, 3
	note C_, 2
	note C_, 3
	rest 16
	octave 4
	note A#, 3
	note A#, 2
	note A#, 3
	octave 5
	note C_, 3
	note C_, 2
	note C_, 3
	note C_, 3
	note C_, 2
	note C_, 3
	note C_, 3
	note C_, 2
	note C_, 3
	note C_, 3
	note C_, 2
	note C_, 3
	rest 5
	sound_jump .mainloop

Music_Carpet_Ch3:
	note_type 6, 2, 0
.mainloop:
	rest 8
	octave 5
	volume_envelope 2, 3
	note E_, 3
	rest 16
	rest 13
	note D_, 3
	rest 16
	rest 13
	note E_, 3
	rest 5
	note E_, 3
	rest 16
	rest 5
	note C_, 3
	rest 13
	note C_, 3
	rest 13
	note E_, 3
	rest 16
	rest 13
	note D_, 3
	rest 16
	rest 13
	note E_, 3
	rest 5
	note E_, 3
	rest 16
	rest 5
	note C_, 3
	rest 13
	note C_, 3
	rest 13
	note E_, 3
	rest 16
	rest 13
	note D_, 3
	rest 16
	rest 13
	note E_, 3
	rest 5
	note E_, 3
	rest 16
	rest 5
	note C_, 3
	rest 13
	note C_, 3
	rest 13
	note E_, 3
	rest 16
	rest 13
	note D_, 3
	rest 16
	rest 13
	note E_, 3
	rest 5
	note E_, 3
	rest 16
	rest 5
	note C_, 3
	rest 13
	note C_, 3
	rest 13
	note E_, 3
	rest 16
	rest 13
	note D_, 3
	rest 16
	rest 13
	note E_, 3
	rest 5
	note E_, 3
	rest 16
	rest 5
	note C_, 3
	rest 13
	note C_, 3
	rest 13
	note E_, 3
	rest 16
	rest 13
	note D_, 3
	rest 16
	rest 13
	note E_, 3
	rest 5
	note E_, 3
	rest 16
	rest 5
	note C_, 3
	rest 13
	note E_, 3
	rest 13
	note C_, 3
	rest 16
	rest 13
	note D_, 3
	rest 16
	rest 13
	octave 4
	note A#, 3
	rest 5
	note A#, 3
	rest 16
	rest 5
	octave 5
	note C_, 3
	rest 13
	note C_, 3
	rest 13
	note C_, 3
	rest 16
	rest 13
	note D_, 3
	rest 16
	rest 13
	octave 4
	note A#, 3
	rest 5
	note A#, 3
	rest 16
	rest 5
	octave 5
	note C_, 3
	rest 13
	note C_, 3
	rest 10
	sound_jump .mainloop

Music_Carpet_Ch4:
	drum_speed 6
	toggle_noise 6
.mainloop:
    drum_speed 6
	drum_note 1, 3
	rest 16
	rest 5
	drum_note 1, 8
	drum_note 11, 3
	rest 16
	rest 5
	drum_note 11, 8
	drum_note 1, 3
	rest 16
	rest 5
	drum_note 1, 8
	drum_note 5, 16
	drum_note 6, 16
	drum_note 1, 3
	rest 16
	rest 5
	drum_note 1, 8
	drum_note 11, 3
	rest 16
	rest 5
	drum_note 11, 8
	drum_note 1, 3
	rest 16
	rest 5
	drum_note 1, 8
	drum_note 5, 16
	drum_note 6, 16
	drum_note 1, 3
	rest 16
	rest 5
	drum_note 1, 8
	drum_note 11, 3
	rest 16
	rest 5
	drum_note 11, 8
	drum_note 1, 3
	rest 16
	rest 5
	drum_note 1, 8
	drum_note 5, 16
	drum_note 6, 16
	drum_note 1, 3
	rest 16
	rest 5
	drum_note 1, 8
	drum_note 11, 3
	rest 16
	rest 5
	drum_note 11, 8
	drum_note 1, 3
	rest 16
	rest 5
	drum_note 1, 8
	drum_note 5, 16
	drum_note 6, 16
	drum_note 1, 3
	rest 16
	rest 5
	drum_note 1, 8
	drum_note 11, 3
	rest 16
	rest 5
	drum_note 11, 8
	drum_note 1, 3
	rest 16
	rest 5
	drum_note 1, 8
	drum_note 5, 16
	drum_note 6, 16
	drum_note 1, 3
	rest 16
	rest 5
	drum_note 1, 8
	drum_note 11, 3
	rest 16
	rest 5
	drum_note 11, 8
	drum_note 1, 3
	rest 16
	rest 5
	drum_note 1, 8
	drum_note 5, 16
	drum_note 6, 16
	drum_note 6, 3
	rest 16
	rest 5
	drum_note 6, 8
	drum_note 8, 3
	rest 16
	rest 5
	drum_note 8, 8
	drum_note 11, 3
	rest 16
	rest 5
	drum_note 11, 8
	drum_note 1, 16
	drum_note 1, 16
	drum_note 6, 3
	rest 16
	rest 5
	drum_note 6, 8
	drum_note 8, 3
	rest 16
	rest 5
	drum_note 8, 8
	drum_note 11, 3
	rest 16
	rest 5
	drum_note 11, 8
	drum_note 1, 16
	drum_note 1, 3
	rest 8
	rest 8
	rest 2
	sound_jump .mainloop
