Music_FaintCourage:
	channel_count 4
	channel 1, Music_FaintCourage_Ch1
	channel 2, Music_FaintCourage_Ch2
	channel 3, Music_FaintCourage_Ch3
	channel 4, Music_FaintCourage_Ch4

Music_FaintCourage_Ch1:
	volume 7, 7
	note_type 6, 6, -1
	tempo 166
	octave 4
	vibrato 0, 2, 5
	duty_cycle 1
	note B_, 8
	note G_, 8
	note E_, 4
	note B_, 4
	note A_, 8
	note D_, 8
	rest 8
	note B_, 8
	octave 5
	note D_, 4
	note C_, 4
	octave 4
	note B_, 4
	note G_, 4
	note A_, 8
	note D_, 8
	rest 8
	note B_, 8
	note G_, 8
	note E_, 4
	note B_, 4
	note A_, 8
	note D_, 8
	rest 8
	note B_, 8
	octave 5
	note D_, 4
	note C_, 4
	octave 4
	note B_, 4
	note G_, 4
	note A_, 8
	note D_, 8
	rest 8
	note B_, 8
	note G_, 8
	note E_, 4
	note B_, 4
	note A_, 8
	note D_, 8
	rest 8
	note B_, 8
	octave 5
	note D_, 4
	note C_, 4
	octave 4
	note B_, 4
	note G_, 4
	note A_, 8
	note D_, 8
	rest 8
	note B_, 8
	note G_, 8
	rest 4
	note B_, 4
	note A_, 8
	note D_, 8
	rest 8
	note B_, 8
	octave 5
	note D_, 4
	note C_, 4
	octave 4
	note B_, 4
	note G_, 4
	note A_, 12
	rest 4
	note G_, 4
	note F#, 4
	note E_, 16
	rest 16
	rest 8
	note G_, 4
	note F#, 4
	note E_, 8
	note B_, 8
	note A_, 4
	note G_, 4
	note A_, 16
	note G_, 4
	note F#, 4
	note E_, 16
	rest 16
	rest 8
	note G_, 4
	note F#, 4
	note E_, 8
	octave 5
	note D_, 8
	note C_, 4
	octave 4
	note B_, 4
	note A_, 16
	note G_, 4
	note F#, 4
	note E_, 16
	rest 16
	rest 8
	note G_, 4
	note F#, 4
	note E_, 8
	note B_, 8
	note A_, 4
	note G_, 4
	note A_, 16
	note G_, 4
	note F#, 4
	note E_, 16
	rest 16
	rest 8
	note G_, 4
	note F#, 4
	note E_, 8
	octave 5
	note D_, 8
	note C_, 4
	octave 4
	note B_, 4
	note A_, 16
	octave 3
	sound_ret

Music_FaintCourage_Ch2:
	note_type 6, 6, 7
	rest 16
	rest 16
	rest 16
	rest 16
	rest 16
	rest 16
	rest 16
	rest 16
	rest 16
	rest 16
	rest 16
	rest 8
	octave 5
	duty_cycle 2
	vibrato 5, 4, 5
	volume_envelope 3, -2
	note G_, 4
	note F#, 4
	note E_, 16
	rest 16
	rest 8
	note G_, 4
	note F#, 4
	note E_, 8
	note B_, 8
	note A_, 4
	note G_, 4
	note A_, 12
	rest 4
	note G_, 4
	note F#, 4
	note E_, 16
	rest 16
	rest 8
	note G_, 4
	note F#, 4
	note E_, 8
	octave 6
	note D_, 8
	note C_, 4
	octave 5
	note B_, 4
	note A_, 16
	rest 16
	rest 16
	rest 16
	rest 16
	rest 16
	rest 16
	rest 16
	rest 16
	rest 16
	rest 16
	rest 16
	rest 16
	note B_, 4
	note A_, 4
	note G_, 16
	rest 16
	rest 8
	note B_, 4
	note A_, 4
	note G_, 8
	octave 6
	note D_, 8
	note C_, 4
	octave 5
	note B_, 4
	note A_, 16
	note B_, 4
	note A_, 4
	note G_, 16
	rest 16
	rest 8
	note B_, 4
	note A_, 4
	note G_, 8
	octave 6
	note D_, 8
	note C_, 4
	octave 5
	note B_, 4
	note A_, 16
	octave 4
	rest 1
	sound_ret

Music_FaintCourage_Ch3:
	note_type 6, 2, 0
	rest 16
	rest 16
	rest 16
	rest 16
	rest 16
	rest 16
	rest 16
	rest 16
	rest 16
	rest 16
	rest 16
	rest 16
	rest 16
	rest 16
	rest 16
	rest 16
	rest 16
	rest 16
	rest 16
	rest 16
	rest 16
	rest 16
	rest 16
	rest 16
	octave 3
	vibrato 0, 1, 5
	volume_envelope 3, 8
	note C_, 8
	note G_, 8
	note C_, 8
	note D_, 8
	note A_, 8
	note D_, 8
	note E_, 8
	note B_, 8
	note E_, 8
	note D_, 8
	note A_, 8
	note D_, 8
	note C_, 8
	note G_, 8
	note C_, 8
	note D_, 8
	note A_, 8
	note D_, 8
	note E_, 8
	note B_, 8
	note E_, 8
	note D_, 8
	note A_, 8
	note D_, 8
	note C_, 8
	note G_, 8
	note C_, 8
	note D_, 8
	note A_, 8
	note D_, 8
	note E_, 8
	note B_, 8
	note E_, 8
	note D_, 8
	note A_, 8
	note D_, 8
	note C_, 8
	note G_, 8
	note C_, 8
	note D_, 8
	note A_, 8
	note D_, 8
	note E_, 8
	note B_, 8
	note E_, 8
	note D_, 16
	octave 1
	sound_ret

Music_FaintCourage_Ch4:
	toggle_noise 1
	drum_speed 6
	toggle_noise
	toggle_noise 6
	drum_note 5, 4
	drum_note 8, 4
	drum_note 12, 4
	drum_note 5, 4
	drum_note 8, 4
	drum_note 12, 4
	drum_note 12, 4
	drum_note 3, 4
	drum_note 7, 4
	drum_note 3, 12
	drum_note 1, 4
	drum_note 5, 4
	drum_note 8, 4
	drum_note 12, 4
	drum_note 3, 4
	drum_note 8, 4
	drum_note 12, 4
	drum_note 3, 4
	drum_note 10, 4
	drum_note 3, 12
	drum_note 5, 4
	drum_note 8, 4
	drum_note 12, 4
	drum_note 5, 4
	drum_note 8, 8
	drum_note 12, 4
	drum_note 3, 4
	drum_note 7, 4
	drum_note 3, 12
	drum_note 1, 4
	drum_note 5, 4
	drum_note 8, 4
	drum_note 12, 4
	drum_note 3, 4
	drum_note 8, 4
	drum_note 12, 4
	drum_note 3, 4
	drum_note 10, 4
	drum_note 3, 12
	drum_note 5, 4
	drum_note 8, 4
	drum_note 12, 4
	drum_note 5, 4
	drum_note 8, 8
	drum_note 12, 4
	drum_note 3, 4
	drum_note 7, 4
	drum_note 3, 12
	drum_note 1, 4
	drum_note 5, 4
	drum_note 8, 4
	drum_note 12, 4
	drum_note 3, 4
	drum_note 8, 4
	drum_note 12, 4
	drum_note 3, 4
	drum_note 10, 4
	drum_note 3, 12
	drum_note 5, 4
	drum_note 8, 4
	drum_note 12, 4
	drum_note 5, 4
	drum_note 8, 8
	drum_note 12, 4
	drum_note 3, 4
	drum_note 7, 4
	drum_note 3, 12
	drum_note 1, 4
	drum_note 5, 4
	drum_note 8, 4
	drum_note 12, 4
	drum_note 3, 4
	drum_note 8, 2
	rest 16
	rest 10
	drum_note 1, 4
	drum_note 5, 4
	drum_note 8, 4
	drum_note 1, 4
	drum_note 5, 4
	drum_note 8, 4
	drum_note 3, 4
	drum_note 7, 4
	drum_note 10, 4
	drum_note 3, 4
	drum_note 7, 4
	drum_note 10, 4
	drum_note 5, 4
	drum_note 8, 4
	drum_note 12, 4
	drum_note 5, 4
	drum_note 8, 8
	drum_note 12, 4
	drum_note 3, 4
	drum_note 7, 4
	drum_note 10, 4
	drum_note 3, 4
	drum_note 7, 4
	drum_note 1, 4
	drum_note 5, 4
	drum_note 8, 4
	drum_note 1, 4
	drum_note 5, 4
	drum_note 8, 4
	drum_note 3, 4
	drum_note 7, 4
	drum_note 10, 4
	drum_note 3, 4
	drum_note 7, 4
	drum_note 10, 4
	drum_note 5, 4
	drum_note 8, 4
	drum_note 12, 4
	drum_note 5, 4
	drum_note 8, 8
	drum_note 12, 4
	drum_note 3, 4
	drum_note 7, 4
	drum_note 10, 4
	drum_note 3, 4
	drum_note 7, 4
	drum_note 1, 4
	drum_note 5, 4
	drum_note 8, 4
	drum_note 1, 4
	drum_note 5, 4
	drum_note 8, 4
	drum_note 3, 4
	drum_note 7, 4
	drum_note 10, 4
	drum_note 3, 4
	drum_note 7, 4
	drum_note 10, 4
	drum_note 5, 4
	drum_note 8, 4
	drum_note 12, 4
	drum_note 5, 4
	drum_note 8, 8
	drum_note 12, 4
	drum_note 3, 4
	drum_note 7, 4
	drum_note 10, 4
	drum_note 3, 4
	drum_note 7, 4
	drum_note 1, 4
	drum_note 5, 4
	drum_note 8, 4
	drum_note 1, 4
	drum_note 5, 4
	drum_note 8, 4
	drum_note 3, 4
	drum_note 7, 4
	drum_note 10, 4
	drum_note 3, 4
	drum_note 7, 4
	drum_note 10, 4
	drum_note 5, 4
	drum_note 8, 4
	drum_note 12, 4
	drum_note 5, 4
	drum_note 8, 4
	sound_ret
